<svg xmlns="http://www.w3.org/2000/svg" width="148" height="91" viewBox="0 0 148 91">
  <g id="alphabet" transform="translate(-648 -327.291)">
    <rect id="長方形_587" data-name="長方形 587" width="148" height="91" rx="10" transform="translate(648 327.291)" fill="#3b3b3b"/>
    <text id="Apple" transform="translate(666 351.291)" fill="#e55c6e" font-size="17" font-family="NotoSansCJKjp-Bold, Noto Sans CJK JP" font-weight="700" letter-spacing="0.085em"><tspan x="0" y="0">A</tspan><tspan y="0" fill="#fff">pple</tspan></text>
    <text id="Banana" transform="translate(666 379.291)" fill="#f5f397" font-size="17" font-family="NotoSansCJKjp-Bold, Noto Sans CJK JP" font-weight="700" letter-spacing="0.085em"><tspan x="0" y="0">B</tspan><tspan y="0" fill="#fff">anana</tspan></text>
    <text id="Cat" transform="translate(666 405.291)" fill="#92d4c4" font-size="17" font-family="NotoSansCJKjp-Bold, Noto Sans CJK JP" font-weight="700" letter-spacing="0.085em"><tspan x="0" y="0">C</tspan><tspan y="0" fill="#fff">at</tspan></text>
    <g id="グループ_2222" data-name="グループ 2222" transform="translate(768.93 352.526)">
      <path id="多角形_14" data-name="多角形 14" d="M3.086,2.056a1,1,0,0,1,1.828,0L7.375,7.594A1,1,0,0,1,6.461,9H1.539A1,1,0,0,1,.625,7.594Z" transform="translate(8.069 44.765) rotate(180)" fill="#fff"/>
      <line id="線_19" data-name="線 19" y2="39.113" transform="translate(4.594)" fill="none" stroke="#fff" stroke-linecap="round" stroke-width="2.3"/>
    </g>
    <path id="パス_27408" data-name="パス 27408" d="M3.038-.558A3.606,3.606,0,0,0,5.352-1.571h.055l.137.822H7.187V-5.228c0-2.218-1-3.382-2.944-3.382A6.126,6.126,0,0,0,1.039-7.6l.726,1.328a4.333,4.333,0,0,1,2.109-.726c.945,0,1.274.575,1.315,1.328C2.093-5.337.765-4.475.765-2.831A2.178,2.178,0,0,0,3.038-.558ZM3.7-2.133c-.589,0-1.013-.26-1.013-.863,0-.685.63-1.205,2.506-1.438v1.547A2.084,2.084,0,0,1,3.7-2.133Z" transform="translate(769.35 347.834)" fill="#fff"/>
    <path id="パス_27409" data-name="パス 27409" d="M.615-.732H6.681V-2.32H3.121l3.437-5V-8.4H1v1.588H4.052l-3.437,5Z" transform="translate(769.806 407.155)" fill="#fff"/>
  </g>
</svg>
