<svg xmlns="http://www.w3.org/2000/svg" width="304" height="182" viewBox="0 0 304 182">
  <g id="card_yellow" transform="translate(-848 -183)">
    <rect id="長方形_2285" data-name="長方形 2285" width="304" height="182" rx="1" transform="translate(848 183)" fill="#fbfcec"/>
    <g id="グループ_2776" data-name="グループ 2776" transform="translate(694.29 4)">
      <rect id="長方形_2290" data-name="長方形 2290" width="288" height="167" rx="1" transform="translate(162 187)" fill="#fae79b"/>
      <path id="合体_1" data-name="合体 1" d="M-2816.6-3463.879c-14.4,0-14.4,12.379-28.8,12.379-14.347,0-14.4-12.289-28.642-12.379H-2759c-14.4,0-14.4,12.379-28.8,12.379S-2802.2-3463.879-2816.6-3463.879Zm-115.076,0h57.318c-14.242.09-14.295,12.379-28.642,12.379S-2917.4-3463.809-2931.676-3463.879Zm-57.634,0h57.386c-14.276.071-14.318,12.379-28.676,12.379S-2975-3463.829-2989.31-3463.88Zm-57.69,0h57.51c-14.312.051-14.341,12.38-28.711,12.38C-3032.6-3451.5-3032.6-3463.88-3047-3463.88Zm172.642,0h0Zm-57.566,0h0Zm-57.566,0h0Zm-56.43-.383V-3503.5h287v39.238Z" transform="translate(3208.42 3691)" fill="#f9f5ba" stroke="#f9f5ba" stroke-width="1"/>
    </g>
  </g>
</svg>
