<svg xmlns="http://www.w3.org/2000/svg" width="148" height="91" viewBox="0 0 148 91">
  <g id="class_height" transform="translate(-855 -437.358)">
    <rect id="長方形_598" data-name="長方形 598" width="148" height="91" rx="10" transform="translate(855 437.358)" fill="#3b3b3b"/>
    <rect id="長方形_2272" data-name="長方形 2272" width="79" height="24" rx="2" transform="translate(870 447.358)" fill="ivory"/>
    <text id="class" transform="translate(892 463.358)" fill="#3b3b3b" font-size="12" font-family="NotoSansCJKjp-Bold, Noto Sans CJK JP" font-weight="700" letter-spacing="0.085em"><tspan x="0" y="0">class</tspan></text>
    <g id="グループ_2750" data-name="グループ 2750" transform="translate(943.617 471.716)">
      <path id="多角形_18" data-name="多角形 18" d="M2.053.894a.5.5,0,0,1,.894,0L4.638,4.276A.5.5,0,0,1,4.191,5H.809a.5.5,0,0,1-.447-.724Z" transform="translate(5.383 22.642) rotate(180)" fill="#f5f397"/>
      <line id="線_31" data-name="線 31" y2="13.676" transform="translate(2.741 3.682)" fill="none" stroke="#f5f397" stroke-linecap="round" stroke-width="1.5"/>
      <path id="多角形_19" data-name="多角形 19" d="M2.038,1.108a.5.5,0,0,1,.923,0l1.75,4.2A.5.5,0,0,1,4.25,6H.75a.5.5,0,0,1-.462-.692Z" transform="translate(0.383 -0.358)" fill="#f5f397"/>
    </g>
    <rect id="長方形_2273" data-name="長方形 2273" width="79" height="25" rx="2" transform="translate(870 494.358)" fill="ivory"/>
    <text id="class-2" data-name="class" transform="translate(892 510.358)" fill="#3b3b3b" font-size="12" font-family="NotoSansCJKjp-Bold, Noto Sans CJK JP" font-weight="700" letter-spacing="0.085em"><tspan x="0" y="0">class</tspan></text>
    <path id="Icon_awesome-question" data-name="Icon awesome-question" d="M14.38,0A13.816,13.816,0,0,0,2.108,6.491a1.713,1.713,0,0,0,.369,2.344l3.076,2.332a1.711,1.711,0,0,0,2.371-.3c1.786-2.238,3.111-3.526,5.9-3.526,2.194,0,4.907,1.412,4.907,3.539,0,1.608-1.328,2.434-3.494,3.648C12.713,15.949,9.37,17.711,9.37,22.12v.7a1.711,1.711,0,0,0,1.711,1.711h5.168a1.711,1.711,0,0,0,1.711-1.711v-.412c0-3.056,8.932-3.183,8.932-11.454C26.893,4.725,20.433,0,14.38,0Zm-.715,26.63A4.939,4.939,0,1,0,18.6,31.57,4.945,4.945,0,0,0,13.665,26.63Z" transform="translate(961.916 464.425)" fill="#fff"/>
  </g>
</svg>
