<svg id="code" xmlns="http://www.w3.org/2000/svg" width="128" height="128" viewBox="0 0 128 128">
  <rect id="長方形_490" data-name="長方形 490" width="128" height="128" rx="14" fill="#92d4c4"/>
  <path id="パス_25511" data-name="パス 25511" d="M7.112.12a5.318,5.318,0,0,0,3.872-1.57A.394.394,0,0,0,11-2c-.018-.018-.018-.018-.018-.036L9.967-3.253a.44.44,0,0,0-.678-.054,3.115,3.115,0,0,1-2.052.821c-1.784,0-2.944-1.463-2.944-3.961,0-2.463,1.338-3.926,2.98-3.926a2.823,2.823,0,0,1,1.82.678.445.445,0,0,0,.66-.054l1.035-1.267a.4.4,0,0,0-.036-.571A5.283,5.283,0,0,0,7.219-12.96c-3.212,0-6.031,2.409-6.031,6.6C1.188-2.075,3.9.12,7.112.12Zm12.58,0c3.444,0,5.782-2.463,5.782-6.6,0-4.122-2.338-6.478-5.782-6.478-3.426,0-5.782,2.338-5.782,6.478S16.267.12,19.693.12Zm0-2.605c-1.66,0-2.677-1.535-2.677-4,0-2.445,1.017-3.89,2.677-3.89s2.695,1.445,2.695,3.89C22.387-4.02,21.352-2.485,19.693-2.485ZM29.7-.112h3.355c3.676,0,6.21-1.981,6.21-6.37s-2.534-6.246-6.388-6.246H29.7a.421.421,0,0,0-.446.446V-.558A.421.421,0,0,0,29.7-.112Zm2.587-2.659v-7.352a.2.2,0,0,1,.214-.2h.2c2.034,0,3.462.839,3.462,3.837S34.735-2.557,32.7-2.557h-.2A.206.206,0,0,1,32.291-2.771ZM43.444-.112h7.3a.421.421,0,0,0,.446-.446v-1.66a.421.421,0,0,0-.446-.446H46.477a.421.421,0,0,1-.446-.446V-4.894a.421.421,0,0,1,.446-.446H49.8a.421.421,0,0,0,.446-.446V-7.428a.421.421,0,0,0-.446-.446H46.477a.421.421,0,0,1-.446-.446V-9.766a.421.421,0,0,1,.446-.446h4.069a.421.421,0,0,0,.446-.446v-1.624a.421.421,0,0,0-.446-.446h-7.1a.421.421,0,0,0-.446.446V-.558A.421.421,0,0,0,43.444-.112Z" transform="translate(37.812 112)" fill="#fff"/>
  <path id="パス_25510" data-name="パス 25510" d="M33.187.7h8.5a1.534,1.534,0,0,0,1.619-2.176L29.476-46.145a1.585,1.585,0,0,0-1.552-1.224H16.657A1.585,1.585,0,0,0,15.1-46.145L1.274-1.479A1.534,1.534,0,0,0,2.893.7h8.1A1.725,1.725,0,0,0,12.609-.6L14.7-9.025a1.725,1.725,0,0,1,1.619-1.292H27.857a1.725,1.725,0,0,1,1.619,1.292L31.567-.6A1.725,1.725,0,0,0,33.187.7ZM17.534-20.583l.742-2.719L21.11-34.724c.607-2.379,1.349-2.379,1.957,0,.945,3.807,1.957,7.886,2.9,11.421l.675,2.719c.2.816-.2,1.292-.945,1.292H18.546A.949.949,0,0,1,17.534-20.583ZM60.309,1.58a15.042,15.042,0,0,0,9.176-3.331c.877-.68,1.619-.476,1.889.612l.135.544A1.649,1.649,0,0,0,73.128.7H79.47A1.6,1.6,0,0,0,81.157-1V-20.175c0-11.489-5.33-16.792-14.776-16.792a29.732,29.732,0,0,0-14.236,4.011,1.562,1.562,0,0,0-.675,2.244L53.9-26.09a1.642,1.642,0,0,0,2.361.748,16.431,16.431,0,0,1,7.961-2.447c2.969,0,4.588,1.156,5.2,3.059a1.385,1.385,0,0,1-1.282,1.836c-13.089,1.7-18.621,5.915-18.621,13.325C49.514-3.451,53.562,1.58,60.309,1.58Zm3.913-8.906c-2.361,0-3.913-1.02-3.913-3.127,0-2.447,2.024-4.487,8.3-5.507a.968.968,0,0,1,1.147,1.02v4.283a1.043,1.043,0,0,1-.27.68C67.866-8.278,66.381-7.326,64.222-7.326Z" transform="translate(22.843 78.291)" fill="#fff"/>
</svg>
