<svg id="daruma_green_load" xmlns="http://www.w3.org/2000/svg" width="56.938" height="60.538" viewBox="0 0 56.938 60.538">
  <g id="グループ_641" data-name="グループ 641">
    <path id="パス_8509" data-name="パス 8509" d="M75.348,396.394c-3.679,10.747-18.389,14.144-26.88,14.144-5.289,0-13-1.318-18.947-4.909a18.61,18.61,0,0,1-6.89-6.9,14.151,14.151,0,0,1-1.043-2.337c-3.672-10.747-.275-20.937,3.113-29.986A24.629,24.629,0,0,1,48.468,350a25.3,25.3,0,0,1,13.238,3.518,24.364,24.364,0,0,1,8.273,8.265,27.147,27.147,0,0,1,2.256,4.625C75.632,375.457,79.02,385.647,75.348,396.394Z" transform="translate(-20 -350)" fill="#009b75"/>
    <path id="パス_8510" data-name="パス 8510" d="M73.086,375.049a5.3,5.3,0,0,0-3.254-2.4c-3.613-.842-9.187-.566-12.307-.566s-8.693-.276-12.307.566a5.3,5.3,0,0,0-3.253,2.4c-1.7,2.829-5.475,14.31-4.668,17.54a5.848,5.848,0,0,0,3.4,4.3c4.575,1.71,12.373,1.074,16.828,1.074s12.254.637,16.829-1.074a5.849,5.849,0,0,0,3.4-4.3C78.561,389.359,74.784,377.878,73.086,375.049Z" transform="translate(-29.058 -361.614)" fill="#fddbad"/>
    <g id="グループ_632" data-name="グループ 632" transform="translate(5.273 40.878)">
      <path id="パス_8511" data-name="パス 8511" d="M49.069,439.544a3.087,3.087,0,0,1,3.088-3.113c2.013,0,2.551,1.839,2.551,2.971s-.538,6.223.4,9.053-1.879,3.112-2.953,1.415A18.5,18.5,0,0,1,49.069,439.544Z" transform="translate(-40.593 -436.432)" fill="#f1e275"/>
      <path id="パス_8512" data-name="パス 8512" d="M31.182,440.871a2.632,2.632,0,0,1,1.9-3.116c1.507-.251,2.151,1.3,2.3,2.291s.415,5.533,1.49,7.9-1,2.967-2.026,1.61A18.182,18.182,0,0,1,31.182,440.871Z" transform="translate(-31.148 -437.115)" fill="#f1e275"/>
      <path id="パス_8513" data-name="パス 8513" d="M105.172,439.544a3.086,3.086,0,0,0-3.087-3.113c-2.014,0-2.551,1.839-2.551,2.971s.537,6.223-.4,9.053,1.879,3.112,2.954,1.415A18.51,18.51,0,0,0,105.172,439.544Z" transform="translate(-66.879 -436.432)" fill="#f1e275"/>
      <path id="パス_8514" data-name="パス 8514" d="M122.489,440.871a2.633,2.633,0,0,0-1.9-3.116c-1.508-.251-2.151,1.3-2.3,2.291s-.414,5.533-1.49,7.9,1,2.967,2.025,1.61A18.186,18.186,0,0,0,122.489,440.871Z" transform="translate(-76.13 -437.115)" fill="#f1e275"/>
    </g>
    <g id="グループ_633" data-name="グループ 633" transform="translate(21.847 29.913)">
      <path id="パス_8515" data-name="パス 8515" d="M78.918,415.072l-4.141-1.757a.85.85,0,0,0-.687.01l-1.276.589-1.276-.589a.85.85,0,0,0-.687-.01l-4.141,1.757a.849.849,0,1,0,.664,1.563l3.794-1.609,1.29.595a.845.845,0,0,0,.711,0l1.29-.595,3.795,1.609a.849.849,0,1,0,.663-1.562Z" transform="translate(-66.193 -413.248)" fill="#db0701"/>
    </g>
    <g id="グループ_640" data-name="グループ 640" transform="translate(9.549 12.005)">
      <g id="グループ_636" data-name="グループ 636">
        <g id="グループ_634" data-name="グループ 634">
          <path id="パス_8516" data-name="パス 8516" d="M53.11,396.773a6.79,6.79,0,1,1,6.79-6.79A6.8,6.8,0,0,1,53.11,396.773Z" transform="translate(-43.421 -379.499)" fill="#ecc28c"/>
          <path id="パス_8517" data-name="パス 8517" d="M60.094,391.875A5.093,5.093,0,1,1,55,386.782,5.092,5.092,0,0,1,60.094,391.875Z" transform="translate(-45.313 -381.391)" fill="#fff"/>
          <path id="パス_8518" data-name="パス 8518" d="M57.757,397.25a2.62,2.62,0,1,1,2.621-2.62A2.622,2.622,0,0,1,57.757,397.25Z" transform="translate(-48.068 -384.146)" fill="#260f05"/>
          <path id="パス_8519" data-name="パス 8519" d="M40.685,405.028c-.849,3.253-.849,6.79,1.98,8.063s5.8,0,6.365-.707l-1.7-.849.707-1.274H46.06v-1.7A4.49,4.49,0,0,1,40.685,405.028Z" transform="translate(-40.19 -391.007)" fill="#260f05"/>
          <path id="パス_8520" data-name="パス 8520" d="M59.024,378.369a1.341,1.341,0,0,0-2.639-.339,1.461,1.461,0,0,1-1.18.056c-1.556-.566-5.659-3.4-8.77-2.546-4.367,1.191-5.4,4.829-4.348,7.445a2.111,2.111,0,0,0,.767,1.279,1.417,1.417,0,0,0,.826.408A2.083,2.083,0,0,0,46.17,383.3a1.775,1.775,0,0,0,.08-1.1,2.1,2.1,0,0,0-.363-.823c-.008-.012-.011-.024-.019-.035-.983-1.475,1.839-2.829,4.526-2.122s6.234,1.332,7.639.566c.6-.325.858-.67.918-1A1.343,1.343,0,0,0,59.024,378.369Z" transform="translate(-40.989 -375.383)" fill="#260f05"/>
        </g>
        <g id="グループ_635" data-name="グループ 635" transform="translate(13.741 12.909)">
          <path id="パス_8521" data-name="パス 8521" d="M70.542,402.807a2.916,2.916,0,0,0-.912.905,2.4,2.4,0,0,0-.386,1.275,2.083,2.083,0,0,0,.394,1.217,2.789,2.789,0,0,0,1.119.882.849.849,0,0,0,.712-1.542,1.1,1.1,0,0,1-.451-.33.367.367,0,0,1-.076-.227.713.713,0,0,1,.125-.369,1.2,1.2,0,0,1,.376-.372.849.849,0,0,0-.9-1.44Z" transform="translate(-69.244 -402.678)" fill="#db0701"/>
        </g>
      </g>
      <g id="グループ_639" data-name="グループ 639" transform="translate(19.803)">
        <g id="グループ_637" data-name="グループ 637">
          <path id="パス_8522" data-name="パス 8522" d="M92.142,396.773a6.79,6.79,0,1,0-6.79-6.79A6.8,6.8,0,0,0,92.142,396.773Z" transform="translate(-83.796 -379.499)" fill="#ecc28c"/>
          <path id="パス_8523" data-name="パス 8523" d="M88.941,391.875a5.092,5.092,0,1,0,5.092-5.093A5.092,5.092,0,0,0,88.941,391.875Z" transform="translate(-85.688 -381.391)" fill="#fff"/>
          <path id="パス_8524" data-name="パス 8524" d="M96.788,397.25a2.62,2.62,0,1,0-2.62-2.62A2.622,2.622,0,0,0,96.788,397.25Z" transform="translate(-88.442 -384.146)" fill="#260f05"/>
          <path id="パス_8525" data-name="パス 8525" d="M109.849,405.028c.849,3.253.849,6.79-1.98,8.063s-5.8,0-6.366-.707l1.7-.849-.708-1.274h1.981v-1.7A4.49,4.49,0,0,0,109.849,405.028Z" transform="translate(-92.308 -391.007)" fill="#260f05"/>
          <path id="パス_8526" data-name="パス 8526" d="M82.062,378.369a1.341,1.341,0,0,1,2.639-.339,1.461,1.461,0,0,0,1.18.056c1.556-.566,5.658-3.4,8.77-2.546,4.367,1.191,5.4,4.829,4.347,7.445a2.108,2.108,0,0,1-.766,1.279,1.418,1.418,0,0,1-.826.408,2.083,2.083,0,0,1-2.491-1.375,1.782,1.782,0,0,1-.081-1.1,2.113,2.113,0,0,1,.364-.823c.008-.012.011-.024.019-.035.983-1.475-1.839-2.829-4.527-2.122s-6.233,1.332-7.639.566c-.595-.325-.857-.67-.917-1A1.316,1.316,0,0,1,82.062,378.369Z" transform="translate(-82.062 -375.383)" fill="#260f05"/>
        </g>
        <g id="グループ_638" data-name="グループ 638" transform="translate(1.576 12.909)">
          <path id="パス_8527" data-name="パス 8527" d="M86.814,402.807a2.91,2.91,0,0,1,.913.905,2.4,2.4,0,0,1,.385,1.275,2.08,2.08,0,0,1-.394,1.217,2.789,2.789,0,0,1-1.119.882.849.849,0,0,1-.712-1.542,1.1,1.1,0,0,0,.451-.33.364.364,0,0,0,.076-.227.711.711,0,0,0-.124-.369,1.21,1.21,0,0,0-.376-.372.849.849,0,0,1,.9-1.44Z" transform="translate(-85.395 -402.678)" fill="#db0701"/>
        </g>
      </g>
    </g>
  </g>
  <path id="パス_8528" data-name="パス 8528" d="M107.073,396.394c-3.679,10.747-18.389,14.144-26.88,14.144V350a25.3,25.3,0,0,1,13.238,3.518,24.364,24.364,0,0,1,8.273,8.265,27.146,27.146,0,0,1,2.256,4.625C107.356,375.457,110.745,385.647,107.073,396.394Z" transform="translate(-51.725 -350)" fill="#417850" opacity="0.18"/>
</svg>
