<svg xmlns="http://www.w3.org/2000/svg" xmlns:xlink="http://www.w3.org/1999/xlink" width="70" height="70" viewBox="0 0 70 70">
  <defs>
    <clipPath id="clip-path">
      <rect id="長方形_2083" data-name="長方形 2083" width="70" height="70" transform="translate(431 628)" fill="none" stroke="#707070" stroke-width="1"/>
    </clipPath>
  </defs>
  <g id="daruma_icon" transform="translate(-431 -628)" clip-path="url(#clip-path)">
    <g id="グループ_1977" data-name="グループ 1977" transform="translate(443.304 609.583)">
      <path id="パス_20223" data-name="パス 20223" d="M23.307,4.236a8.387,8.387,0,0,1,14.576,0l22.2,38.969A8.387,8.387,0,0,1,52.79,55.744H8.4A8.387,8.387,0,0,1,1.112,43.205Z" transform="translate(28.256 98.287) rotate(-150)" fill="#fc9f81"/>
      <g id="_4" data-name="4" transform="translate(-0.412 30.954)">
        <g id="グループ_642" data-name="グループ 642" transform="translate(0)">
          <g id="グループ_641" data-name="グループ 641">
            <path id="パス_8509" data-name="パス 8509" d="M61.873,385.1c-2.783,8.131-13.912,10.7-20.336,10.7A29.544,29.544,0,0,1,27.2,392.085a14.079,14.079,0,0,1-5.212-5.219A10.706,10.706,0,0,1,21.2,385.1c-2.778-8.131-.208-15.84,2.355-22.685A18.633,18.633,0,0,1,41.537,350a19.139,19.139,0,0,1,10.015,2.661,18.432,18.432,0,0,1,6.259,6.253,20.538,20.538,0,0,1,1.707,3.5C62.087,369.259,64.651,376.968,61.873,385.1Z" transform="translate(-20 -350)" fill="#fa3541"/>
            <path id="パス_8510" data-name="パス 8510" d="M64.346,374.316a4.008,4.008,0,0,0-2.462-1.819c-2.734-.637-6.951-.428-9.31-.428s-6.576-.209-9.31.428a4.008,4.008,0,0,0-2.461,1.819c-1.284,2.14-4.142,10.826-3.532,13.27a4.425,4.425,0,0,0,2.572,3.255c3.461,1.294,9.36.812,12.731.812s9.271.482,12.732-.812a4.425,4.425,0,0,0,2.572-3.255C68.488,385.142,65.63,376.456,64.346,374.316Z" transform="translate(-31.037 -364.151)" fill="#fddbad"/>
            <g id="グループ_632" data-name="グループ 632" transform="translate(3.989 30.926)">
              <path id="パス_8511" data-name="パス 8511" d="M49.069,438.787a2.335,2.335,0,0,1,2.336-2.355,2.02,2.02,0,0,1,1.93,2.247c0,.856-.407,4.708.3,6.849s-1.422,2.354-2.234,1.07A14,14,0,0,1,49.069,438.787Z" transform="translate(-42.657 -436.432)" fill="#f1e275"/>
              <path id="パス_8512" data-name="パス 8512" d="M31.174,440.106a1.991,1.991,0,0,1,1.44-2.358c1.14-.19,1.627.982,1.739,1.734s.314,4.186,1.127,5.977-.756,2.245-1.532,1.218A13.755,13.755,0,0,1,31.174,440.106Z" transform="translate(-31.148 -437.264)" fill="#f1e275"/>
              <path id="パス_8513" data-name="パス 8513" d="M103.655,438.787a2.335,2.335,0,0,0-2.336-2.355,2.019,2.019,0,0,0-1.93,2.247c0,.856.406,4.708-.305,6.849s1.422,2.354,2.235,1.07A14,14,0,0,0,103.655,438.787Z" transform="translate(-74.685 -436.432)" fill="#f1e275"/>
              <path id="パス_8514" data-name="パス 8514" d="M121.03,440.106a1.992,1.992,0,0,0-1.441-2.358c-1.141-.19-1.627.982-1.739,1.734s-.313,4.186-1.127,5.977.755,2.245,1.532,1.218A13.758,13.758,0,0,0,121.03,440.106Z" transform="translate(-85.958 -437.264)" fill="#f1e275"/>
            </g>
            <g id="グループ_633" data-name="グループ 633" transform="translate(16.528 22.63)">
              <path id="パス_8515" data-name="パス 8515" d="M75.82,414.628,72.687,413.3a.643.643,0,0,0-.52.008l-.965.445-.965-.445a.643.643,0,0,0-.52-.008l-3.133,1.329a.642.642,0,1,0,.5,1.182l2.871-1.218.976.45a.639.639,0,0,0,.538,0l.976-.45,2.871,1.218a.642.642,0,1,0,.5-1.182Z" transform="translate(-66.193 -413.248)" fill="#db0701"/>
            </g>
            <g id="グループ_640" data-name="グループ 640" transform="translate(7.224 9.082)">
              <g id="グループ_636" data-name="グループ 636">
                <g id="グループ_634" data-name="グループ 634">
                  <path id="パス_8516" data-name="パス 8516" d="M51.457,393.467a5.137,5.137,0,1,1,5.137-5.137A5.143,5.143,0,0,1,51.457,393.467Z" transform="translate(-44.127 -380.398)" fill="#ecc28c"/>
                  <path id="パス_8517" data-name="パス 8517" d="M57.615,390.635a3.853,3.853,0,1,1-3.853-3.853A3.852,3.852,0,0,1,57.615,390.635Z" transform="translate(-46.432 -382.703)" fill="#fff"/>
                  <path id="パス_8518" data-name="パス 8518" d="M57.119,395.974a1.982,1.982,0,1,1,1.983-1.982A1.983,1.983,0,0,1,57.119,395.974Z" transform="translate(-49.789 -386.06)" fill="#260f05"/>
                  <path id="パス_8519" data-name="パス 8519" d="M40.564,405.028c-.642,2.461-.642,5.137,1.5,6.1a4.751,4.751,0,0,0,4.816-.535l-1.284-.642.535-.964h-1.5V407.7A3.4,3.4,0,0,1,40.564,405.028Z" transform="translate(-40.19 -394.421)" fill="#260f05"/>
                  <path id="パス_8520" data-name="パス 8520" d="M54.808,377.642a1.014,1.014,0,0,0-2-.256,1.105,1.105,0,0,1-.893.042c-1.178-.428-4.281-2.569-6.635-1.926-3.3.9-4.087,3.654-3.289,5.633a1.6,1.6,0,0,0,.58.967,1.072,1.072,0,0,0,.625.308,1.576,1.576,0,0,0,1.885-1.04,1.343,1.343,0,0,0,.061-.832,1.587,1.587,0,0,0-.275-.622c-.006-.009-.008-.018-.014-.026-.744-1.116,1.391-2.14,3.424-1.605s4.716,1.008,5.779.428c.45-.246.649-.507.694-.754A1.016,1.016,0,0,0,54.808,377.642Z" transform="translate(-41.163 -375.383)" fill="#260f05"/>
                </g>
                <g id="グループ_635" data-name="グループ 635" transform="translate(10.395 9.766)">
                  <path id="パス_8521" data-name="パス 8521" d="M70.226,402.775a2.206,2.206,0,0,0-.69.685,1.813,1.813,0,0,0-.292.965,1.576,1.576,0,0,0,.3.921,2.11,2.11,0,0,0,.847.667.642.642,0,0,0,.538-1.167.831.831,0,0,1-.341-.249.277.277,0,0,1-.058-.172.539.539,0,0,1,.094-.279.907.907,0,0,1,.284-.281.642.642,0,0,0-.681-1.089Z" transform="translate(-69.244 -402.678)" fill="#db0701"/>
                </g>
              </g>
              <g id="グループ_639" data-name="グループ 639" transform="translate(14.982)">
                <g id="グループ_637" data-name="グループ 637">
                  <path id="パス_8522" data-name="パス 8522" d="M90.489,393.467a5.137,5.137,0,1,0-5.137-5.137A5.142,5.142,0,0,0,90.489,393.467Z" transform="translate(-84.175 -380.398)" fill="#ecc28c"/>
                  <path id="パス_8523" data-name="パス 8523" d="M88.941,390.635a3.852,3.852,0,1,0,3.852-3.853A3.852,3.852,0,0,0,88.941,390.635Z" transform="translate(-86.48 -382.703)" fill="#fff"/>
                  <path id="パス_8524" data-name="パス 8524" d="M96.15,395.974a1.982,1.982,0,1,0-1.982-1.982A1.984,1.984,0,0,0,96.15,395.974Z" transform="translate(-89.836 -386.06)" fill="#260f05"/>
                  <path id="パス_8525" data-name="パス 8525" d="M107.817,405.028c.642,2.461.642,5.137-1.5,6.1a4.751,4.751,0,0,1-4.816-.535l1.284-.642-.535-.964h1.5V407.7A3.4,3.4,0,0,0,107.817,405.028Z" transform="translate(-94.547 -394.421)" fill="#260f05"/>
                  <path id="パス_8526" data-name="パス 8526" d="M82.062,377.642a1.014,1.014,0,0,1,2-.256,1.105,1.105,0,0,0,.893.042c1.177-.428,4.28-2.569,6.635-1.926,3.3.9,4.086,3.654,3.289,5.633a1.6,1.6,0,0,1-.579.967,1.073,1.073,0,0,1-.625.308,1.576,1.576,0,0,1-1.885-1.04,1.348,1.348,0,0,1-.062-.832,1.6,1.6,0,0,1,.276-.622c.006-.009.008-.018.014-.026.744-1.116-1.392-2.14-3.425-1.605s-4.715,1.008-5.779.428c-.45-.246-.648-.507-.693-.754A1,1,0,0,1,82.062,377.642Z" transform="translate(-82.062 -375.383)" fill="#260f05"/>
                </g>
                <g id="グループ_638" data-name="グループ 638" transform="translate(1.193 9.766)">
                  <path id="パス_8527" data-name="パス 8527" d="M86.469,402.775a2.2,2.2,0,0,1,.691.685,1.819,1.819,0,0,1,.292.965,1.573,1.573,0,0,1-.3.921,2.109,2.109,0,0,1-.847.667.642.642,0,0,1-.539-1.167.83.83,0,0,0,.341-.249.275.275,0,0,0,.058-.172.538.538,0,0,0-.094-.279.915.915,0,0,0-.284-.281.642.642,0,0,1,.68-1.089Z" transform="translate(-85.395 -402.678)" fill="#db0701"/>
                </g>
              </g>
            </g>
          </g>
          <path id="パス_8528" data-name="パス 8528" d="M100.529,385.1c-2.783,8.131-13.912,10.7-20.336,10.7V350a19.139,19.139,0,0,1,10.015,2.661,18.432,18.432,0,0,1,6.259,6.253,20.537,20.537,0,0,1,1.707,3.5C100.743,369.259,103.306,376.968,100.529,385.1Z" transform="translate(-58.656 -350)" fill="#910b0b" opacity="0.18"/>
        </g>
      </g>
    </g>
  </g>
</svg>
