<svg id="daruma_modal" xmlns="http://www.w3.org/2000/svg" width="105.856" height="112.549" viewBox="0 0 105.856 112.549">
  <g id="グループ_641" data-name="グループ 641">
    <path id="パス_8509" data-name="パス 8509" d="M122.9,436.254c-6.84,19.981-34.189,26.3-49.974,26.3-9.833,0-24.176-2.451-35.226-9.126A34.6,34.6,0,0,1,24.891,440.6a26.309,26.309,0,0,1-1.94-4.345c-6.826-19.981-.511-38.925,5.788-55.749C35.054,363.651,50.314,350,72.927,350a47.033,47.033,0,0,1,24.611,6.54,45.3,45.3,0,0,1,15.381,15.366,50.474,50.474,0,0,1,4.194,8.6C123.428,397.329,129.727,416.273,122.9,436.254Z" transform="translate(-20 -350)" fill="#fa3541"/>
    <path id="パス_8510" data-name="パス 8510" d="M103.93,377.639a9.85,9.85,0,0,0-6.05-4.47C91.163,371.6,80.8,372.116,75,372.116s-16.161-.513-22.88,1.052a9.85,9.85,0,0,0-6.049,4.47c-3.155,5.259-10.18,26.6-8.679,32.61,1.052,4.208,3.485,6.937,6.32,8,8.506,3.18,23,2,31.287,2s22.782,1.184,31.288-2c2.836-1.061,5.268-3.79,6.32-8C114.109,404.243,107.086,382.9,103.93,377.639Z" transform="translate(-22.075 -352.66)" fill="#fddbad"/>
    <g id="グループ_632" data-name="グループ 632" transform="translate(9.802 75.999)">
      <path id="パス_8511" data-name="パス 8511" d="M49.069,442.219a5.739,5.739,0,0,1,5.742-5.787c3.742,0,4.742,3.419,4.742,5.523s-1,11.571.748,16.831-3.493,5.786-5.49,2.63A34.4,34.4,0,0,1,49.069,442.219Z" transform="translate(-33.311 -436.432)" fill="#f1e275"/>
      <path id="パス_8512" data-name="パス 8512" d="M31.21,443.572c-.346-2.31.735-5.329,3.539-5.794s4,2.413,4.274,4.26.772,10.286,2.771,14.689-1.857,5.516-3.766,2.993A33.8,33.8,0,0,1,31.21,443.572Z" transform="translate(-31.148 -436.588)" fill="#f1e275"/>
      <path id="パス_8513" data-name="パス 8513" d="M110.525,442.219a5.738,5.738,0,0,0-5.74-5.787c-3.744,0-4.742,3.419-4.742,5.523s1,11.571-.75,16.831,3.494,5.786,5.492,2.63A34.413,34.413,0,0,0,110.525,442.219Z" transform="translate(-39.332 -436.432)" fill="#f1e275"/>
      <path id="パス_8514" data-name="パス 8514" d="M127.638,443.572c.345-2.31-.736-5.329-3.54-5.794s-4,2.413-4.274,4.26-.77,10.286-2.77,14.689,1.856,5.516,3.765,2.993A33.81,33.81,0,0,0,127.638,443.572Z" transform="translate(-41.45 -436.588)" fill="#f1e275"/>
    </g>
    <g id="グループ_633" data-name="グループ 633" transform="translate(40.617 55.613)">
      <path id="パス_8515" data-name="パス 8515" d="M89.85,416.638l-7.7-3.266a1.582,1.582,0,0,0-1.277.019L78.5,414.487l-2.372-1.095a1.582,1.582,0,0,0-1.277-.019l-7.7,3.266a1.578,1.578,0,1,0,1.234,2.905l7.055-2.992,2.4,1.106a1.571,1.571,0,0,0,1.322,0l2.4-1.106,7.055,2.992a1.578,1.578,0,1,0,1.233-2.905Z" transform="translate(-66.193 -413.248)" fill="#db0701"/>
    </g>
    <g id="グループ_640" data-name="グループ 640" transform="translate(17.753 22.319)">
      <g id="グループ_636" data-name="グループ 636">
        <g id="グループ_634" data-name="グループ 634">
          <path id="パス_8516" data-name="パス 8516" d="M58.943,408.441a12.624,12.624,0,1,1,12.624-12.623A12.638,12.638,0,0,1,58.943,408.441Z" transform="translate(-40.93 -376.325)" fill="#ecc28c"/>
          <path id="パス_8517" data-name="パス 8517" d="M68.845,396.251a9.468,9.468,0,1,1-9.469-9.469A9.467,9.467,0,0,1,68.845,396.251Z" transform="translate(-41.363 -376.759)" fill="#fff"/>
          <path id="パス_8518" data-name="パス 8518" d="M60.007,401.752a4.872,4.872,0,1,1,4.873-4.87A4.874,4.874,0,0,1,60.007,401.752Z" transform="translate(-41.994 -377.39)" fill="#260f05"/>
          <path id="パス_8519" data-name="パス 8519" d="M41.11,405.028c-1.578,6.049-1.578,12.623,3.682,14.99s10.782,0,11.834-1.315l-3.155-1.578,1.315-2.368H51.1V411.6S43.476,413.443,41.11,405.028Z" transform="translate(-40.19 -378.961)" fill="#260f05"/>
          <path id="パス_8520" data-name="パス 8520" d="M73.9,380.936a2.493,2.493,0,0,0-4.906-.63,2.716,2.716,0,0,1-2.195.1c-2.894-1.052-10.521-6.312-16.306-4.734-8.119,2.214-10.043,8.978-8.083,13.842a3.925,3.925,0,0,0,1.425,2.378,2.633,2.633,0,0,0,1.535.758,3.874,3.874,0,0,0,4.632-2.556,3.3,3.3,0,0,0,.149-2.044,3.9,3.9,0,0,0-.675-1.529c-.014-.023-.02-.044-.035-.065-1.828-2.742,3.419-5.259,8.415-3.944s11.59,2.477,14.2,1.052c1.107-.6,1.6-1.245,1.706-1.852A2.494,2.494,0,0,0,73.9,380.936Z" transform="translate(-40.373 -375.383)" fill="#260f05"/>
        </g>
        <g id="グループ_635" data-name="グループ 635" transform="translate(25.547 24.001)">
          <path id="パス_8521" data-name="パス 8521" d="M71.657,402.917a5.424,5.424,0,0,0-1.7,1.683,4.454,4.454,0,0,0-.717,2.371,3.873,3.873,0,0,0,.732,2.262,5.183,5.183,0,0,0,2.08,1.64,1.579,1.579,0,0,0,1.323-2.866,2.043,2.043,0,0,1-.839-.613.682.682,0,0,1-.142-.423,1.325,1.325,0,0,1,.232-.686,2.23,2.23,0,0,1,.7-.691,1.578,1.578,0,0,0-1.673-2.677Z" transform="translate(-69.244 -402.678)" fill="#db0701"/>
        </g>
      </g>
      <g id="グループ_639" data-name="グループ 639" transform="translate(36.817)">
        <g id="グループ_637" data-name="グループ 637">
          <path id="パス_8522" data-name="パス 8522" d="M97.975,408.441a12.624,12.624,0,1,0-12.623-12.623A12.637,12.637,0,0,0,97.975,408.441Z" transform="translate(-82.459 -376.325)" fill="#ecc28c"/>
          <path id="パス_8523" data-name="パス 8523" d="M88.941,396.251a9.467,9.467,0,1,0,9.467-9.469A9.467,9.467,0,0,0,88.941,396.251Z" transform="translate(-82.892 -376.759)" fill="#fff"/>
          <path id="パス_8524" data-name="パス 8524" d="M99.039,401.752a4.872,4.872,0,1,0-4.871-4.87A4.875,4.875,0,0,0,99.039,401.752Z" transform="translate(-83.523 -377.39)" fill="#260f05"/>
          <path id="パス_8525" data-name="パス 8525" d="M117.019,405.028c1.578,6.049,1.578,12.623-3.681,14.99s-10.784,0-11.835-1.315l3.156-1.578-1.315-2.368h3.682V411.6S114.652,413.443,117.019,405.028Z" transform="translate(-84.409 -378.961)" fill="#260f05"/>
          <path id="パス_8526" data-name="パス 8526" d="M82.062,380.936a2.493,2.493,0,0,1,4.906-.63,2.716,2.716,0,0,0,2.195.1c2.892-1.052,10.519-6.312,16.306-4.734,8.119,2.214,10.042,8.978,8.082,13.842a3.919,3.919,0,0,1-1.424,2.378,2.636,2.636,0,0,1-1.536.758,3.873,3.873,0,0,1-4.631-2.556,3.314,3.314,0,0,1-.151-2.044,3.928,3.928,0,0,1,.677-1.529c.014-.023.02-.044.035-.065,1.827-2.742-3.42-5.259-8.417-3.944s-11.588,2.477-14.2,1.052c-1.106-.6-1.593-1.245-1.7-1.852A2.444,2.444,0,0,1,82.062,380.936Z" transform="translate(-82.062 -375.383)" fill="#260f05"/>
        </g>
        <g id="グループ_638" data-name="グループ 638" transform="translate(2.931 24.001)">
          <path id="パス_8527" data-name="パス 8527" d="M88.034,402.917a5.411,5.411,0,0,1,1.7,1.683,4.468,4.468,0,0,1,.717,2.371,3.867,3.867,0,0,1-.732,2.262,5.183,5.183,0,0,1-2.08,1.64,1.579,1.579,0,0,1-1.323-2.866,2.043,2.043,0,0,0,.839-.613.677.677,0,0,0,.142-.423,1.323,1.323,0,0,0-.231-.686,2.249,2.249,0,0,0-.7-.691,1.578,1.578,0,0,1,1.672-2.677Z" transform="translate(-85.395 -402.678)" fill="#db0701"/>
        </g>
      </g>
    </g>
  </g>
  <path id="パス_8528" data-name="パス 8528" d="M130.167,436.254c-6.84,19.981-34.189,26.3-49.974,26.3V350a47.033,47.033,0,0,1,24.611,6.54,45.3,45.3,0,0,1,15.381,15.366,50.474,50.474,0,0,1,4.194,8.6C130.694,397.329,136.993,416.273,130.167,436.254Z" transform="translate(-27.266 -350)" fill="#240303" opacity="0.18"/>
</svg>
