<svg xmlns="http://www.w3.org/2000/svg" width="30.644" height="32.582" viewBox="0 0 30.644 32.582">
  <g id="daruma_red" transform="translate(-95.588 -33.959)">
    <g id="_4" data-name="4" transform="translate(95.588 33.959)">
      <g id="グループ_642" data-name="グループ 642" transform="translate(0)">
        <g id="グループ_641" data-name="グループ 641">
          <path id="パス_8509" data-name="パス 8509" d="M49.789,374.969c-1.98,5.784-9.9,7.612-14.467,7.612a21.018,21.018,0,0,1-10.2-2.642,10.016,10.016,0,0,1-3.708-3.713,7.617,7.617,0,0,1-.562-1.258c-1.976-5.784-.148-11.268,1.676-16.139A13.256,13.256,0,0,1,35.322,350a13.616,13.616,0,0,1,7.125,1.893,13.112,13.112,0,0,1,4.452,4.448,14.61,14.61,0,0,1,1.214,2.489C49.941,363.7,51.765,369.185,49.789,374.969Z" transform="translate(-20 -350)" fill="#fa3541"/>
          <path id="パス_8510" data-name="パス 8510" d="M56.508,373.658a2.851,2.851,0,0,0-1.751-1.294,33.322,33.322,0,0,0-6.624-.3,33.324,33.324,0,0,0-6.624.3,2.851,2.851,0,0,0-1.751,1.294c-.913,1.522-2.947,7.7-2.512,9.44a3.148,3.148,0,0,0,1.83,2.315c2.462.92,6.659.578,9.057.578s6.6.343,9.057-.578a3.148,3.148,0,0,0,1.83-2.315C59.454,381.359,57.421,375.18,56.508,373.658Z" transform="translate(-32.811 -366.427)" fill="#fddbad"/>
          <g id="グループ_632" data-name="グループ 632" transform="translate(2.838 22.001)">
            <path id="パス_8511" data-name="パス 8511" d="M49.069,438.107a1.661,1.661,0,0,1,1.662-1.675,1.437,1.437,0,0,1,1.373,1.6c0,.609-.289,3.349.217,4.872s-1.011,1.675-1.589.761A9.957,9.957,0,0,1,49.069,438.107Z" transform="translate(-44.507 -436.432)" fill="#f1e275"/>
            <path id="パス_8512" data-name="パス 8512" d="M31.166,439.419a1.417,1.417,0,0,1,1.025-1.677c.811-.135,1.158.7,1.237,1.233a17.42,17.42,0,0,0,.8,4.252c.579,1.274-.538,1.6-1.09.866A9.785,9.785,0,0,1,31.166,439.419Z" transform="translate(-31.148 -437.398)" fill="#f1e275"/>
            <path id="パス_8513" data-name="パス 8513" d="M102.3,438.107a1.661,1.661,0,0,0-1.662-1.675,1.437,1.437,0,0,0-1.373,1.6c0,.609.289,3.349-.217,4.872s1.012,1.675,1.59.761A9.962,9.962,0,0,0,102.3,438.107Z" transform="translate(-81.685 -436.432)" fill="#f1e275"/>
            <path id="パス_8514" data-name="パス 8514" d="M119.721,439.419a1.417,1.417,0,0,0-1.025-1.677c-.811-.135-1.157.7-1.237,1.233a17.393,17.393,0,0,1-.8,4.252c-.578,1.274.537,1.6,1.09.866A9.787,9.787,0,0,0,119.721,439.419Z" transform="translate(-94.771 -437.398)" fill="#f1e275"/>
          </g>
          <g id="グループ_633" data-name="グループ 633" transform="translate(11.758 16.099)">
            <path id="パス_8515" data-name="パス 8515" d="M73.042,414.229l-2.229-.945a.458.458,0,0,0-.37.006l-.687.317-.687-.317a.458.458,0,0,0-.37-.006l-2.229.945a.457.457,0,1,0,.357.841l2.042-.866.694.32a.455.455,0,0,0,.383,0l.694-.32,2.042.866a.457.457,0,1,0,.357-.841Z" transform="translate(-66.193 -413.248)" fill="#db0701"/>
          </g>
          <g id="グループ_640" data-name="グループ 640" transform="translate(5.139 6.461)">
            <g id="グループ_636" data-name="グループ 636">
              <g id="グループ_634" data-name="グループ 634">
                <path id="パス_8516" data-name="パス 8516" d="M49.974,390.5a3.655,3.655,0,1,1,3.654-3.654A3.659,3.659,0,0,1,49.974,390.5Z" transform="translate(-44.76 -381.205)" fill="#ecc28c"/>
                <path id="パス_8517" data-name="パス 8517" d="M55.391,389.523a2.741,2.741,0,1,1-2.741-2.741A2.741,2.741,0,0,1,55.391,389.523Z" transform="translate(-47.435 -383.88)" fill="#fff"/>
                <path id="パス_8518" data-name="パス 8518" d="M56.547,394.83a1.41,1.41,0,1,1,1.411-1.41A1.411,1.411,0,0,1,56.547,394.83Z" transform="translate(-51.332 -387.777)" fill="#260f05"/>
                <path id="パス_8519" data-name="パス 8519" d="M40.456,405.028c-.457,1.751-.457,3.654,1.066,4.34a3.38,3.38,0,0,0,3.426-.381l-.913-.457.381-.686H43.349v-.913A2.417,2.417,0,0,1,40.456,405.028Z" transform="translate(-40.19 -397.482)" fill="#260f05"/>
                <path id="パス_8520" data-name="パス 8520" d="M51.027,376.99a.722.722,0,0,0-1.42-.182.786.786,0,0,1-.635.03c-.838-.3-3.046-1.827-4.72-1.37-2.35.641-2.907,2.6-2.34,4.007a1.136,1.136,0,0,0,.413.688.763.763,0,0,0,.444.219,1.121,1.121,0,0,0,1.341-.74.955.955,0,0,0,.043-.592,1.129,1.129,0,0,0-.2-.443c0-.007-.006-.013-.01-.019-.529-.794.99-1.522,2.436-1.142s3.355.717,4.111.3c.32-.175.462-.36.494-.536A.723.723,0,0,0,51.027,376.99Z" transform="translate(-41.32 -375.383)" fill="#260f05"/>
              </g>
              <g id="グループ_635" data-name="グループ 635" transform="translate(7.395 6.948)">
                <path id="パス_8521" data-name="パス 8521" d="M69.942,402.747a1.57,1.57,0,0,0-.491.487,1.289,1.289,0,0,0-.208.686,1.121,1.121,0,0,0,.212.655,1.5,1.5,0,0,0,.6.475.457.457,0,0,0,.383-.83.591.591,0,0,1-.243-.177.2.2,0,0,1-.041-.122.384.384,0,0,1,.067-.2.646.646,0,0,1,.2-.2.457.457,0,0,0-.484-.775Z" transform="translate(-69.244 -402.678)" fill="#db0701"/>
              </g>
            </g>
            <g id="グループ_639" data-name="グループ 639" transform="translate(10.658)">
              <g id="グループ_637" data-name="グループ 637">
                <path id="パス_8522" data-name="パス 8522" d="M89.006,390.5a3.655,3.655,0,1,0-3.654-3.654A3.658,3.658,0,0,0,89.006,390.5Z" transform="translate(-84.515 -381.205)" fill="#ecc28c"/>
                <path id="パス_8523" data-name="パス 8523" d="M88.941,389.523a2.741,2.741,0,1,0,2.741-2.741A2.741,2.741,0,0,0,88.941,389.523Z" transform="translate(-87.19 -383.88)" fill="#fff"/>
                <path id="パス_8525" data-name="パス 8525" d="M105.995,405.028c.457,1.751.457,3.654-1.066,4.34a3.38,3.38,0,0,1-3.426-.381l.914-.457-.381-.686H103.1v-.913A2.417,2.417,0,0,0,105.995,405.028Z" transform="translate(-96.554 -397.482)" fill="#260f05"/>
                <path id="パス_8526" data-name="パス 8526" d="M82.062,376.99a.722.722,0,0,1,1.42-.182.786.786,0,0,0,.635.03c.837-.3,3.045-1.827,4.72-1.37,2.35.641,2.907,2.6,2.34,4.007a1.134,1.134,0,0,1-.412.688.763.763,0,0,1-.445.219,1.121,1.121,0,0,1-1.341-.74.959.959,0,0,1-.044-.592,1.137,1.137,0,0,1,.2-.443c0-.007.006-.013.01-.019.529-.794-.99-1.522-2.436-1.142s-3.355.717-4.111.3c-.32-.175-.461-.36-.493-.536A.708.708,0,0,1,82.062,376.99Z" transform="translate(-82.062 -375.383)" fill="#260f05"/>
                <path id="パス_27396" data-name="パス 27396" d="M94.66,374.969c-1.98,5.784-9.9,7.612-14.467,7.612V350a13.616,13.616,0,0,1,7.125,1.893,13.112,13.112,0,0,1,4.452,4.448,14.61,14.61,0,0,1,1.214,2.489C94.813,363.7,96.636,369.185,94.66,374.969Z" transform="translate(-80.669 -356.461)" fill="#910b0b" opacity="0.18"/>
              </g>
              <g id="グループ_638" data-name="グループ 638" transform="translate(0.848 6.948)">
                <path id="パス_8527" data-name="パス 8527" d="M86.159,402.747a1.566,1.566,0,0,1,.491.487,1.294,1.294,0,0,1,.207.686,1.119,1.119,0,0,1-.212.655,1.5,1.5,0,0,1-.6.475.457.457,0,0,1-.383-.83.591.591,0,0,0,.243-.177.2.2,0,0,0,.041-.122.383.383,0,0,0-.067-.2.651.651,0,0,0-.2-.2.457.457,0,0,1,.484-.775Z" transform="translate(-85.395 -402.678)" fill="#db0701"/>
              </g>
            </g>
          </g>
        </g>
      </g>
    </g>
  </g>
</svg>
