<svg xmlns="http://www.w3.org/2000/svg" width="115" height="71" viewBox="0 0 115 71">
  <g id="def_height" transform="translate(-855 -437.088)">
    <rect id="長方形_598" data-name="長方形 598" width="115" height="71" rx="8" transform="translate(855 437.088)" fill="#3b3b3b"/>
    <rect id="長方形_2272" data-name="長方形 2272" width="61" height="19" rx="2" transform="translate(867 445.088)" fill="ivory"/>
    <text id="def" transform="translate(888 457.087)" fill="#3b3b3b" font-size="9" font-family="NotoSansCJKjp-Bold, Noto Sans CJK JP" font-weight="700" letter-spacing="0.085em"><tspan x="0" y="0">def</tspan></text>
    <g id="グループ_2750" data-name="グループ 2750" transform="translate(924.156 463.797)">
      <path id="多角形_18" data-name="多角形 18" d="M1.553.894a.5.5,0,0,1,.894,0L3.638,3.276A.5.5,0,0,1,3.191,4H.809a.5.5,0,0,1-.447-.724Z" transform="translate(3.844 18.29) rotate(180)" fill="#fc9f81"/>
      <line id="線_31" data-name="線 31" y2="10.629" transform="translate(1.848 3.13)" fill="none" stroke="#fc9f81" stroke-linecap="round" stroke-width="1.5"/>
      <path id="多角形_19" data-name="多角形 19" d="M2.076.678a.5.5,0,0,1,.848,0l1.6,2.557A.5.5,0,0,1,4.1,4H.9a.5.5,0,0,1-.424-.765Z" transform="translate(-0.156 0.29)" fill="#fc9f81"/>
    </g>
    <rect id="長方形_2273" data-name="長方形 2273" width="61" height="19" rx="2" transform="translate(867 482.088)" fill="ivory"/>
    <text id="def-2" data-name="def" transform="translate(888 494.087)" fill="#3b3b3b" font-size="9" font-family="NotoSansCJKjp-Bold, Noto Sans CJK JP" font-weight="700" letter-spacing="0.085em"><tspan x="0" y="0">def</tspan></text>
    <path id="Icon_awesome-question" data-name="Icon awesome-question" d="M11.577,0A10.738,10.738,0,0,0,2.039,5.045a1.331,1.331,0,0,0,.287,1.822L4.717,8.679a1.33,1.33,0,0,0,1.843-.23c1.388-1.739,2.418-2.74,4.586-2.74,1.7,0,3.814,1.1,3.814,2.751,0,1.25-1.032,1.892-2.715,2.835-1.963,1.1-4.561,2.47-4.561,5.9v.542a1.33,1.33,0,0,0,1.33,1.33H13.03a1.33,1.33,0,0,0,1.33-1.33v-.32c0-2.375,6.942-2.474,6.942-8.9C21.3,3.672,16.281,0,11.577,0Zm-.555,20.7a3.839,3.839,0,1,0,3.839,3.839A3.843,3.843,0,0,0,11.022,20.7Z" transform="translate(937.694 458.399)" fill="#fff"/>
  </g>
</svg>
