<svg xmlns="http://www.w3.org/2000/svg" xmlns:xlink="http://www.w3.org/1999/xlink" width="1309.474" height="246.068" viewBox="0 0 1309.474 246.068">
  <defs>
    <clipPath id="clip-path">
      <path id="パス_27413" data-name="パス 27413" d="M-2.4-1.272S245.57-6.021,291.782-5.091c77.26,1.555,189.6,9.864,308.666,10.986C709.527,6.924,826.37-4.418,960.673-7c72.079-1.386,346.4,8.906,346.4,8.906V238.863s-79.159,1.278-231.077-6.557-293.021-2.5-382.2-.06-158.959,8.813-303.26.06S-2.4,238.863-2.4,238.863Z" transform="translate(-14 52)" fill="#61d5b8"/>
    </clipPath>
  </defs>
  <g id="green_bg" transform="translate(-128 -1701.872)">
    <path id="パス_27412" data-name="パス 27412" d="M-2.4-1.272S245.57-6.021,291.782-5.091c77.26,1.555,189.6,9.864,308.666,10.986C709.527,6.924,826.37-4.418,960.673-7c72.079-1.386,346.4,8.906,346.4,8.906V238.863s-79.159,1.278-231.077-6.557-293.021-2.5-382.2-.06-158.959,8.813-303.26.06S-2.4,238.863-2.4,238.863Z" transform="translate(130.404 1709)" fill="#61d5b8"/>
    <g id="マスクグループ_1" data-name="マスクグループ 1" transform="translate(144.404 1657)" clip-path="url(#clip-path)">
      <g id="_4" data-name="4" transform="translate(1086.471 194.403)">
        <g id="グループ_642" data-name="グループ 642" transform="translate(5.916 6.29)">
          <g id="グループ_641" data-name="グループ 641">
            <path id="パス_8509" data-name="パス 8509" d="M129.539,441.819c-7.281,21.27-36.394,27.992-53.2,27.992-10.467,0-25.736-2.609-37.5-9.715a36.832,36.832,0,0,1-13.636-13.652,28.009,28.009,0,0,1-2.065-4.625c-7.266-21.27-.544-41.436,6.162-59.345C36.025,364.532,52.27,350,76.341,350a50.068,50.068,0,0,1,26.2,6.962,48.222,48.222,0,0,1,16.373,16.357,53.729,53.729,0,0,1,4.465,9.154C130.1,400.382,136.806,420.549,129.539,441.819Z" transform="translate(-20 -350)" fill="#fff"/>
            <path id="パス_8510" data-name="パス 8510" d="M108.236,378a10.485,10.485,0,0,0-6.44-4.759c-7.151-1.666-18.183-1.12-24.356-1.12s-17.2-.546-24.356,1.12A10.486,10.486,0,0,0,46.645,378c-3.358,5.6-10.836,28.321-9.238,34.714,1.119,4.48,3.709,7.384,6.728,8.514,9.055,3.385,24.487,2.125,33.305,2.125s24.252,1.26,33.306-2.125c3.019-1.13,5.608-4.034,6.728-8.514C119.071,406.321,111.6,383.6,108.236,378Z" transform="translate(-21.1 -351.41)" fill="#61d5b8"/>
            <g id="グループ_632" data-name="グループ 632" transform="translate(10.435 80.902)">
              <path id="パス_8511" data-name="パス 8511" d="M49.069,442.592a6.109,6.109,0,0,1,6.112-6.16c3.984,0,5.048,3.639,5.048,5.879s-1.064,12.317.8,17.917-3.719,6.159-5.844,2.8A36.617,36.617,0,0,1,49.069,442.592Z" transform="translate(-32.295 -436.432)" fill="#61d5b8"/>
              <path id="パス_8512" data-name="パス 8512" d="M31.214,443.949c-.368-2.459.783-5.673,3.767-6.167s4.257,2.568,4.55,4.535.822,10.949,2.949,15.636-1.977,5.872-4.009,3.186A35.984,35.984,0,0,1,31.214,443.949Z" transform="translate(-31.148 -436.515)" fill="#61d5b8"/>
              <path id="パス_8513" data-name="パス 8513" d="M111.272,442.592a6.108,6.108,0,0,0-6.11-6.16c-3.986,0-5.048,3.639-5.048,5.879s1.062,12.317-.8,17.917,3.72,6.159,5.846,2.8A36.634,36.634,0,0,0,111.272,442.592Z" transform="translate(-35.486 -436.432)" fill="#61d5b8"/>
              <path id="パス_8514" data-name="パス 8514" d="M128.357,443.949c.367-2.459-.783-5.673-3.768-6.167s-4.256,2.568-4.55,4.535-.82,10.949-2.948,15.636,1.976,5.872,4.008,3.186A35.992,35.992,0,0,0,128.357,443.949Z" transform="translate(-36.609 -436.515)" fill="#61d5b8"/>
            </g>
            <g id="グループ_640" data-name="グループ 640" transform="translate(27.995 34.429)">
              <g id="グループ_636" data-name="グループ 636" transform="translate(0)">
                <g id="グループ_634" data-name="グループ 634">
                  <path id="パス_8517" data-name="パス 8517" d="M70.067,396.862a10.079,10.079,0,1,1-10.08-10.08A10.078,10.078,0,0,1,70.067,396.862Z" transform="translate(-49.909 -386.782)" fill="#fff"/>
                  <path id="パス_8518" data-name="パス 8518" d="M60.322,402.381a5.186,5.186,0,1,1,5.187-5.185A5.189,5.189,0,0,1,60.322,402.381Z" transform="translate(-50.244 -387.116)" fill="#61d5b8"/>
                </g>
              </g>
              <g id="グループ_639" data-name="グループ 639" transform="translate(36.534)">
                <g id="グループ_637" data-name="グループ 637" transform="translate(0)">
                  <path id="パス_8523" data-name="パス 8523" d="M88.941,396.862a10.078,10.078,0,1,0,10.078-10.08A10.078,10.078,0,0,0,88.941,396.862Z" transform="translate(-88.941 -386.782)" fill="#fff"/>
                  <path id="パス_8524" data-name="パス 8524" d="M99.353,402.381a5.186,5.186,0,1,0-5.185-5.185A5.19,5.19,0,0,0,99.353,402.381Z" transform="translate(-89.275 -387.116)" fill="#61d5b8"/>
                </g>
              </g>
            </g>
          </g>
        </g>
      </g>
    </g>
  </g>
</svg>
