<svg xmlns="http://www.w3.org/2000/svg" width="107.533" height="106.063" viewBox="0 0 107.533 106.063">
  <g id="home_back" transform="translate(-1871.467 -6513.896)">
    <g id="グループ_3370" data-name="グループ 3370" transform="translate(1871.467 6514.483)">
      <g id="home" transform="translate(0)">
        <g id="グループ_2601" data-name="グループ 2601">
          <path id="パス_28596" data-name="パス 28596" d="M270.881,396.147l-.313,5.407-2.722,46.5H177.992l-2.442-41.678-.281-4.82-.313-5.407Z" transform="translate(-171.281 -353.869)" fill="#e5ded4"/>
          <path id="パス_28597" data-name="パス 28597" d="M271.244,466.138l-.346,5.438H174.55L174.3,467.7l-.1-1.567Z" transform="translate(-171.086 -371.955)" fill="#7c6c5f"/>
          <g id="グループ_2598" data-name="グループ 2598" transform="translate(11.323 59.304)">
            <g id="グループ_2595" data-name="グループ 2595">
              <path id="パス_28598" data-name="パス 28598" d="M197.309,431.445h-11.6l-.438-9.686h11.746Z" transform="translate(-185.268 -421.759)" fill="#a69c92"/>
              <path id="パス_28599" data-name="パス 28599" d="M197.844,447H186.408l-.425-9.405h11.574Z" transform="translate(-185.453 -425.851)" fill="#a69c92"/>
            </g>
            <g id="グループ_2596" data-name="グループ 2596" transform="translate(14.74)">
              <path id="パス_28600" data-name="パス 28600" d="M217.007,431.445H205.4l-.259-9.686H216.89Z" transform="translate(-205.144 -421.759)" fill="#a69c92"/>
              <path id="パス_28601" data-name="パス 28601" d="M217.254,447H205.819l-.252-9.405h11.574Z" transform="translate(-205.253 -425.851)" fill="#a69c92"/>
            </g>
            <g id="グループ_2597" data-name="グループ 2597" transform="translate(29.48)">
              <path id="パス_28602" data-name="パス 28602" d="M236.7,431.445H225.1l-.081-9.686h11.746Z" transform="translate(-225.02 -421.759)" fill="#a69c92"/>
              <path id="パス_28603" data-name="パス 28603" d="M236.665,447H225.23l-.078-9.405h11.574Z" transform="translate(-225.054 -425.851)" fill="#a69c92"/>
            </g>
          </g>
          <path id="パス_28604" data-name="パス 28604" d="M263.7,411.422h-2.2a10.356,10.356,0,0,0-10.03,10.323l-.5,30.422h20.82l1.325-30.422A9.635,9.635,0,0,0,263.7,411.422Z" transform="translate(-182.571 -357.816)" fill="#7c6c5f"/>
          <path id="パス_28605" data-name="パス 28605" d="M271.371,471.575H250.686l.088-5.443h20.833Z" transform="translate(-182.498 -371.953)" fill="#d9d7d2"/>
          <path id="パス_28606" data-name="パス 28606" d="M273.276,395.093H170l13.635-23.95h76.007l3.917,6.884Z" transform="translate(-170 -353.595)" fill="#7c6c5f"/>
          <g id="グループ_2600" data-name="グループ 2600" transform="translate(20.909)">
            <path id="パス_28607" data-name="パス 28607" d="M223.126,382.4H195.877l-.105-3.028L195.3,365.68l-.241-7.019L208.937,350,219,356.146l4.112,2.516v7.019Z" transform="translate(-195.064 -350)" fill="#e5ded4" stroke="#e5ded4" stroke-width="1"/>
            <g id="グループ_2599" data-name="グループ 2599" transform="translate(5.596 15.684)">
              <path id="パス_28608" data-name="パス 28608" d="M207.714,381.758H202.9l-.295-10.61h4.872Z" transform="translate(-202.609 -371.148)" fill="#a69c92"/>
              <path id="パス_28609" data-name="パス 28609" d="M215.882,381.758h-4.811l-.217-10.61h4.872Z" transform="translate(-204.739 -371.148)" fill="#a69c92"/>
              <path id="パス_28610" data-name="パス 28610" d="M224.049,381.758h-4.811l-.14-10.61h4.872Z" transform="translate(-206.87 -371.148)" fill="#a69c92"/>
            </g>
          </g>
          <path id="パス_28611" data-name="パス 28611" d="M274.972,438.6a2.809,2.809,0,0,1-2.74,2.718,2.569,2.569,0,0,1-2.54-2.718,2.808,2.808,0,0,1,2.742-2.737A2.568,2.568,0,0,1,274.972,438.6Z" transform="translate(-188.872 -366.23)" fill="#e2e2ac"/>
        </g>
        <path id="パス_28612" data-name="パス 28612" d="M277.318,394.941h3.962L271.6,378.707l-3.6-7.439-34-.125v82.008h44.028l.316-5.876h-3.329Z" transform="translate(-178.187 -353.53)" fill="#050404" opacity="0.1"/>
      </g>
      <g id="_4" data-name="4" transform="translate(69.489 65.026)">
        <g id="グループ_642" data-name="グループ 642" transform="translate(0 0)">
          <g id="グループ_641" data-name="グループ 641">
            <path id="パス_8509" data-name="パス 8509" d="M56.982,381c-2.458,7.181-12.287,9.45-17.96,9.45a26.092,26.092,0,0,1-12.66-3.28,12.434,12.434,0,0,1-4.6-4.609,9.454,9.454,0,0,1-.7-1.561c-2.453-7.181-.184-13.989,2.08-20.036A16.456,16.456,0,0,1,39.022,350a16.9,16.9,0,0,1,8.845,2.35,16.279,16.279,0,0,1,5.528,5.522,18.141,18.141,0,0,1,1.507,3.091C57.171,367.01,59.435,373.818,56.982,381Z" transform="translate(-20 -350)" fill="#b9aea3"/>
            <path id="パス_8510" data-name="パス 8510" d="M61.173,374.049A3.54,3.54,0,0,0,59,372.443c-2.414-.562-6.139-.378-8.223-.378s-5.808-.184-8.223.378a3.54,3.54,0,0,0-2.174,1.607c-1.134,1.89-3.658,9.561-3.119,11.72a3.908,3.908,0,0,0,2.271,2.874c3.057,1.143,8.267.717,11.244.717s8.188.425,11.245-.717a3.908,3.908,0,0,0,2.271-2.874C64.831,383.611,62.307,375.939,61.173,374.049Z" transform="translate(-31.755 -365.072)" fill="#e5ded4"/>
            <g id="グループ_632" data-name="グループ 632" transform="translate(3.523 27.313)">
              <path id="パス_8511" data-name="パス 8511" d="M49.069,438.512a2.062,2.062,0,0,1,2.064-2.08,1.784,1.784,0,0,1,1.7,1.985c0,.756-.359,4.158.269,6.049s-1.256,2.079-1.973.945A12.362,12.362,0,0,1,49.069,438.512Z" transform="translate(-43.406 -436.432)" fill="#e5ded4"/>
              <path id="パス_8512" data-name="パス 8512" d="M31.171,439.828a1.759,1.759,0,0,1,1.272-2.082c1.007-.168,1.437.867,1.536,1.531a21.628,21.628,0,0,0,1,5.279c.718,1.582-.667,1.982-1.353,1.076A12.148,12.148,0,0,1,31.171,439.828Z" transform="translate(-31.148 -437.318)" fill="#e5ded4"/>
              <path id="パス_8513" data-name="パス 8513" d="M103.1,438.512a2.062,2.062,0,0,0-2.063-2.08,1.783,1.783,0,0,0-1.7,1.985c0,.756.359,4.158-.27,6.049s1.256,2.079,1.974.945A12.368,12.368,0,0,0,103.1,438.512Z" transform="translate(-77.518 -436.432)" fill="#e5ded4"/>
              <path id="パス_8514" data-name="パス 8514" d="M120.5,439.828a1.759,1.759,0,0,0-1.272-2.082c-1.007-.168-1.437.867-1.536,1.531a21.593,21.593,0,0,1-1,5.279c-.718,1.582.667,1.982,1.353,1.076A12.151,12.151,0,0,0,120.5,439.828Z" transform="translate(-89.525 -437.318)" fill="#e5ded4"/>
            </g>
            <g id="グループ_633" data-name="グループ 633" transform="translate(14.597 19.987)">
              <path id="パス_8515" data-name="パス 8515" d="M74.7,414.466l-2.767-1.174a.569.569,0,0,0-.459.007l-.853.393-.853-.393a.569.569,0,0,0-.459-.007l-2.767,1.174a.567.567,0,1,0,.443,1.044l2.535-1.075.862.4a.564.564,0,0,0,.475,0l.862-.4,2.536,1.075a.567.567,0,1,0,.443-1.044Z" transform="translate(-66.193 -413.248)" fill="#6f6155"/>
            </g>
            <g id="グループ_640" data-name="グループ 640" transform="translate(6.38 8.021)">
              <g id="グループ_636" data-name="グループ 636">
                <g id="グループ_634" data-name="グループ 634">
                  <path id="パス_8516" data-name="パス 8516" d="M50.857,392.267a4.537,4.537,0,1,1,4.537-4.537A4.542,4.542,0,0,1,50.857,392.267Z" transform="translate(-44.383 -380.725)" fill="#b9aea3"/>
                  <path id="パス_8517" data-name="パス 8517" d="M56.715,390.185a3.4,3.4,0,1,1-3.4-3.4A3.4,3.4,0,0,1,56.715,390.185Z" transform="translate(-46.838 -383.18)" fill="#e5ded4"/>
                  <path id="パス_8518" data-name="パス 8518" d="M56.887,395.511a1.751,1.751,0,1,1,1.751-1.75A1.752,1.752,0,0,1,56.887,395.511Z" transform="translate(-50.414 -386.755)" fill="#6f6155"/>
                  <path id="パス_8519" data-name="パス 8519" d="M40.521,405.028c-.567,2.174-.567,4.537,1.323,5.387a4.2,4.2,0,0,0,4.253-.472l-1.134-.567.472-.851H44.112v-1.134A3,3,0,0,1,40.521,405.028Z" transform="translate(-40.19 -395.66)" fill="#6f6155"/>
                  <path id="パス_8520" data-name="パス 8520" d="M53.277,377.378a.9.9,0,0,0-1.763-.226.976.976,0,0,1-.789.037c-1.04-.378-3.781-2.269-5.86-1.7-2.918.8-3.609,3.227-2.905,4.975a1.411,1.411,0,0,0,.512.855.947.947,0,0,0,.552.272,1.392,1.392,0,0,0,1.665-.919,1.186,1.186,0,0,0,.054-.735,1.4,1.4,0,0,0-.243-.55c-.005-.008-.007-.016-.013-.023-.657-.986,1.229-1.89,3.024-1.418s4.165.89,5.1.378c.4-.217.573-.447.613-.666A.9.9,0,0,0,53.277,377.378Z" transform="translate(-41.227 -375.383)" fill="#6f6155"/>
                </g>
                <g id="グループ_635" data-name="グループ 635" transform="translate(9.181 8.626)">
                  <path id="パス_8521" data-name="パス 8521" d="M70.111,402.764a1.949,1.949,0,0,0-.609.6,1.6,1.6,0,0,0-.258.852,1.392,1.392,0,0,0,.263.813,1.863,1.863,0,0,0,.748.589.567.567,0,0,0,.476-1.03.734.734,0,0,1-.3-.22.245.245,0,0,1-.051-.152.476.476,0,0,1,.083-.246.8.8,0,0,1,.251-.248.567.567,0,0,0-.6-.962Z" transform="translate(-69.244 -402.678)" fill="#6f6155"/>
                </g>
              </g>
              <g id="グループ_639" data-name="グループ 639" transform="translate(13.232)">
                <g id="グループ_637" data-name="グループ 637">
                  <path id="パス_8522" data-name="パス 8522" d="M89.889,392.267a4.537,4.537,0,1,0-4.537-4.537A4.542,4.542,0,0,0,89.889,392.267Z" transform="translate(-84.312 -380.725)" fill="#b9aea3"/>
                  <path id="パス_8523" data-name="パス 8523" d="M88.941,390.185a3.4,3.4,0,1,0,3.4-3.4A3.4,3.4,0,0,0,88.941,390.185Z" transform="translate(-86.767 -383.18)" fill="#e5ded4"/>
                  <path id="パス_8524" data-name="パス 8524" d="M95.919,395.511a1.751,1.751,0,1,0-1.751-1.75A1.752,1.752,0,0,0,95.919,395.511Z" transform="translate(-90.342 -386.755)" fill="#6f6155"/>
                  <path id="パス_8525" data-name="パス 8525" d="M107.079,405.028c.567,2.174.567,4.537-1.323,5.387a4.2,4.2,0,0,1-4.253-.472l1.134-.567-.473-.851h1.323v-1.134A3,3,0,0,0,107.079,405.028Z" transform="translate(-95.359 -395.66)" fill="#6f6155"/>
                  <path id="パス_8526" data-name="パス 8526" d="M82.062,377.378a.9.9,0,0,1,1.763-.226.976.976,0,0,0,.789.037c1.039-.378,3.78-2.269,5.86-1.7,2.918.8,3.609,3.227,2.9,4.975a1.409,1.409,0,0,1-.512.855.947.947,0,0,1-.552.272,1.392,1.392,0,0,1-1.664-.919,1.191,1.191,0,0,1-.054-.735,1.412,1.412,0,0,1,.243-.55c.005-.008.007-.016.013-.023.657-.986-1.229-1.89-3.025-1.418s-4.165.89-5.1.378c-.4-.217-.573-.447-.612-.666A.878.878,0,0,1,82.062,377.378Z" transform="translate(-82.062 -375.383)" fill="#6f6155"/>
                </g>
                <g id="グループ_638" data-name="グループ 638" transform="translate(1.053 8.626)">
                  <path id="パス_8527" data-name="パス 8527" d="M86.343,402.764a1.945,1.945,0,0,1,.61.6,1.606,1.606,0,0,1,.258.852,1.39,1.39,0,0,1-.263.813,1.863,1.863,0,0,1-.748.589.567.567,0,0,1-.476-1.03.735.735,0,0,0,.3-.22.243.243,0,0,0,.051-.152.475.475,0,0,0-.083-.246.808.808,0,0,0-.251-.248.567.567,0,0,1,.6-.962Z" transform="translate(-85.395 -402.678)" fill="#6f6155"/>
                </g>
              </g>
            </g>
          </g>
          <path id="パス_8528" data-name="パス 8528" d="M98.153,381c-2.458,7.181-12.287,9.45-17.96,9.45V350a16.9,16.9,0,0,1,8.845,2.35,16.279,16.279,0,0,1,5.528,5.522,18.142,18.142,0,0,1,1.507,3.091C98.343,367.01,100.607,373.818,98.153,381Z" transform="translate(-61.171 -350)" fill="#240303" opacity="0.18"/>
        </g>
      </g>
    </g>
    <g id="グループ_3371" data-name="グループ 3371" transform="translate(1871.467 6514.483)" opacity="0">
      <g id="home-2" data-name="home">
        <g id="グループ_2601-2" data-name="グループ 2601">
          <path id="パス_28596-2" data-name="パス 28596" d="M270.881,396.147l-.313,5.407-2.722,46.5H177.992l-2.442-41.678-.281-4.82-.313-5.407Z" transform="translate(-171.281 -353.869)" fill="#f6f6ad"/>
          <path id="パス_28597-2" data-name="パス 28597" d="M271.244,466.138l-.346,5.438H174.55L174.3,467.7l-.1-1.567Z" transform="translate(-171.086 -371.955)" fill="#875439"/>
          <g id="グループ_2598-2" data-name="グループ 2598" transform="translate(11.323 59.304)">
            <g id="グループ_2595-2" data-name="グループ 2595">
              <path id="パス_28598-2" data-name="パス 28598" d="M197.309,431.445h-11.6l-.438-9.686h11.746Z" transform="translate(-185.268 -421.759)" fill="#a0ccc1"/>
              <path id="パス_28599-2" data-name="パス 28599" d="M197.844,447H186.408l-.425-9.405h11.574Z" transform="translate(-185.453 -425.851)" fill="#a0ccc1"/>
            </g>
            <g id="グループ_2596-2" data-name="グループ 2596" transform="translate(14.74)">
              <path id="パス_28600-2" data-name="パス 28600" d="M217.007,431.445H205.4l-.259-9.686H216.89Z" transform="translate(-205.144 -421.759)" fill="#a0ccc1"/>
              <path id="パス_28601-2" data-name="パス 28601" d="M217.254,447H205.819l-.252-9.405h11.574Z" transform="translate(-205.253 -425.851)" fill="#a0ccc1"/>
            </g>
            <g id="グループ_2597-2" data-name="グループ 2597" transform="translate(29.48)">
              <path id="パス_28602-2" data-name="パス 28602" d="M236.7,431.445H225.1l-.081-9.686h11.746Z" transform="translate(-225.02 -421.759)" fill="#a0ccc1"/>
              <path id="パス_28603-2" data-name="パス 28603" d="M236.665,447H225.23l-.078-9.405h11.574Z" transform="translate(-225.054 -425.851)" fill="#a0ccc1"/>
            </g>
          </g>
          <path id="パス_28604-2" data-name="パス 28604" d="M263.7,411.422h-2.2a10.356,10.356,0,0,0-10.03,10.323l-.5,30.422h20.82l1.325-30.422A9.635,9.635,0,0,0,263.7,411.422Z" transform="translate(-182.571 -357.816)" fill="#ce4754"/>
          <path id="パス_28605-2" data-name="パス 28605" d="M271.371,471.575H250.686l.088-5.443h20.833Z" transform="translate(-182.498 -371.953)" fill="#d9d7d2"/>
          <path id="パス_28606-2" data-name="パス 28606" d="M273.276,395.093H170l13.635-23.95h76.007l3.917,6.884Z" transform="translate(-170 -353.595)" fill="#875439"/>
          <g id="グループ_2600-2" data-name="グループ 2600" transform="translate(20.909)">
            <path id="パス_28607-2" data-name="パス 28607" d="M223.126,382.4H195.877l-.105-3.028L195.3,365.68l-.241-7.019L208.937,350,219,356.146l4.112,2.516v7.019Z" transform="translate(-195.064 -350)" fill="#f6f6ad" stroke="#f6f6ad" stroke-width="0.4"/>
            <g id="グループ_2599-2" data-name="グループ 2599" transform="translate(5.596 15.684)">
              <path id="パス_28608-2" data-name="パス 28608" d="M207.714,381.758H202.9l-.295-10.61h4.872Z" transform="translate(-202.609 -371.148)" fill="#a0ccc1"/>
              <path id="パス_28609-2" data-name="パス 28609" d="M215.882,381.758h-4.811l-.217-10.61h4.872Z" transform="translate(-204.739 -371.148)" fill="#a0ccc1"/>
              <path id="パス_28610-2" data-name="パス 28610" d="M224.049,381.758h-4.811l-.14-10.61h4.872Z" transform="translate(-206.87 -371.148)" fill="#a0ccc1"/>
            </g>
          </g>
          <path id="パス_28611-2" data-name="パス 28611" d="M274.972,438.6a2.809,2.809,0,0,1-2.74,2.718,2.569,2.569,0,0,1-2.54-2.718,2.808,2.808,0,0,1,2.742-2.737A2.568,2.568,0,0,1,274.972,438.6Z" transform="translate(-188.872 -366.23)" fill="#e2e2ac"/>
        </g>
        <path id="パス_28612-2" data-name="パス 28612" d="M277.318,394.941h3.962L271.6,378.707l-3.6-7.439-34-.125v82.008h44.028l.316-5.876h-3.329Z" transform="translate(-178.187 -353.53)" fill="#050404" opacity="0.1"/>
      </g>
      <g id="_4-2" data-name="4" transform="translate(69.489 65.026)">
        <g id="グループ_642-2" data-name="グループ 642" transform="translate(0 0)">
          <g id="グループ_641-2" data-name="グループ 641">
            <path id="パス_8509-2" data-name="パス 8509" d="M56.982,381c-2.458,7.181-12.287,9.45-17.96,9.45a26.092,26.092,0,0,1-12.66-3.28,12.434,12.434,0,0,1-4.6-4.609,9.454,9.454,0,0,1-.7-1.561c-2.453-7.181-.184-13.989,2.08-20.036A16.456,16.456,0,0,1,39.022,350a16.9,16.9,0,0,1,8.845,2.35,16.279,16.279,0,0,1,5.528,5.522,18.141,18.141,0,0,1,1.507,3.091C57.171,367.01,59.435,373.818,56.982,381Z" transform="translate(-20 -350)" fill="#fa3541"/>
            <path id="パス_8510-2" data-name="パス 8510" d="M61.173,374.049A3.54,3.54,0,0,0,59,372.443c-2.414-.562-6.139-.378-8.223-.378s-5.808-.184-8.223.378a3.54,3.54,0,0,0-2.174,1.607c-1.134,1.89-3.658,9.561-3.119,11.72a3.908,3.908,0,0,0,2.271,2.874c3.057,1.143,8.267.717,11.244.717s8.188.425,11.245-.717a3.908,3.908,0,0,0,2.271-2.874C64.831,383.611,62.307,375.939,61.173,374.049Z" transform="translate(-31.755 -365.072)" fill="#fddbad"/>
            <g id="グループ_632-2" data-name="グループ 632" transform="translate(3.523 27.313)">
              <path id="パス_8511-2" data-name="パス 8511" d="M49.069,438.512a2.062,2.062,0,0,1,2.064-2.08,1.784,1.784,0,0,1,1.7,1.985c0,.756-.359,4.158.269,6.049s-1.256,2.079-1.973.945A12.362,12.362,0,0,1,49.069,438.512Z" transform="translate(-43.406 -436.432)" fill="#f1e275"/>
              <path id="パス_8512-2" data-name="パス 8512" d="M31.171,439.828a1.759,1.759,0,0,1,1.272-2.082c1.007-.168,1.437.867,1.536,1.531a21.628,21.628,0,0,0,1,5.279c.718,1.582-.667,1.982-1.353,1.076A12.148,12.148,0,0,1,31.171,439.828Z" transform="translate(-31.148 -437.318)" fill="#f1e275"/>
              <path id="パス_8513-2" data-name="パス 8513" d="M103.1,438.512a2.062,2.062,0,0,0-2.063-2.08,1.783,1.783,0,0,0-1.7,1.985c0,.756.359,4.158-.27,6.049s1.256,2.079,1.974.945A12.368,12.368,0,0,0,103.1,438.512Z" transform="translate(-77.518 -436.432)" fill="#f1e275"/>
              <path id="パス_8514-2" data-name="パス 8514" d="M120.5,439.828a1.759,1.759,0,0,0-1.272-2.082c-1.007-.168-1.437.867-1.536,1.531a21.593,21.593,0,0,1-1,5.279c-.718,1.582.667,1.982,1.353,1.076A12.151,12.151,0,0,0,120.5,439.828Z" transform="translate(-89.525 -437.318)" fill="#f1e275"/>
            </g>
            <g id="グループ_633-2" data-name="グループ 633" transform="translate(14.597 19.987)">
              <path id="パス_8515-2" data-name="パス 8515" d="M74.7,414.466l-2.767-1.174a.569.569,0,0,0-.459.007l-.853.393-.853-.393a.569.569,0,0,0-.459-.007l-2.767,1.174a.567.567,0,1,0,.443,1.044l2.535-1.075.862.4a.564.564,0,0,0,.475,0l.862-.4,2.536,1.075a.567.567,0,1,0,.443-1.044Z" transform="translate(-66.193 -413.248)" fill="#db0701"/>
            </g>
            <g id="グループ_640-2" data-name="グループ 640" transform="translate(6.38 8.021)">
              <g id="グループ_636-2" data-name="グループ 636">
                <g id="グループ_634-2" data-name="グループ 634">
                  <path id="パス_8516-2" data-name="パス 8516" d="M50.857,392.267a4.537,4.537,0,1,1,4.537-4.537A4.542,4.542,0,0,1,50.857,392.267Z" transform="translate(-44.383 -380.725)" fill="#ecc28c"/>
                  <path id="パス_8517-2" data-name="パス 8517" d="M56.715,390.185a3.4,3.4,0,1,1-3.4-3.4A3.4,3.4,0,0,1,56.715,390.185Z" transform="translate(-46.838 -383.18)" fill="#fff"/>
                  <path id="パス_8518-2" data-name="パス 8518" d="M56.887,395.511a1.751,1.751,0,1,1,1.751-1.75A1.752,1.752,0,0,1,56.887,395.511Z" transform="translate(-50.414 -386.755)" fill="#260f05"/>
                  <path id="パス_8519-2" data-name="パス 8519" d="M40.521,405.028c-.567,2.174-.567,4.537,1.323,5.387a4.2,4.2,0,0,0,4.253-.472l-1.134-.567.472-.851H44.112v-1.134A3,3,0,0,1,40.521,405.028Z" transform="translate(-40.19 -395.66)" fill="#260f05"/>
                  <path id="パス_8520-2" data-name="パス 8520" d="M53.277,377.378a.9.9,0,0,0-1.763-.226.976.976,0,0,1-.789.037c-1.04-.378-3.781-2.269-5.86-1.7-2.918.8-3.609,3.227-2.905,4.975a1.411,1.411,0,0,0,.512.855.947.947,0,0,0,.552.272,1.392,1.392,0,0,0,1.665-.919,1.186,1.186,0,0,0,.054-.735,1.4,1.4,0,0,0-.243-.55c-.005-.008-.007-.016-.013-.023-.657-.986,1.229-1.89,3.024-1.418s4.165.89,5.1.378c.4-.217.573-.447.613-.666A.9.9,0,0,0,53.277,377.378Z" transform="translate(-41.227 -375.383)" fill="#260f05"/>
                </g>
                <g id="グループ_635-2" data-name="グループ 635" transform="translate(9.181 8.626)">
                  <path id="パス_8521-2" data-name="パス 8521" d="M70.111,402.764a1.949,1.949,0,0,0-.609.6,1.6,1.6,0,0,0-.258.852,1.392,1.392,0,0,0,.263.813,1.863,1.863,0,0,0,.748.589.567.567,0,0,0,.476-1.03.734.734,0,0,1-.3-.22.245.245,0,0,1-.051-.152.476.476,0,0,1,.083-.246.8.8,0,0,1,.251-.248.567.567,0,0,0-.6-.962Z" transform="translate(-69.244 -402.678)" fill="#db0701"/>
                </g>
              </g>
              <g id="グループ_639-2" data-name="グループ 639" transform="translate(13.232)">
                <g id="グループ_637-2" data-name="グループ 637">
                  <path id="パス_8522-2" data-name="パス 8522" d="M89.889,392.267a4.537,4.537,0,1,0-4.537-4.537A4.542,4.542,0,0,0,89.889,392.267Z" transform="translate(-84.312 -380.725)" fill="#ecc28c"/>
                  <path id="パス_8523-2" data-name="パス 8523" d="M88.941,390.185a3.4,3.4,0,1,0,3.4-3.4A3.4,3.4,0,0,0,88.941,390.185Z" transform="translate(-86.767 -383.18)" fill="#fff"/>
                  <path id="パス_8524-2" data-name="パス 8524" d="M95.919,395.511a1.751,1.751,0,1,0-1.751-1.75A1.752,1.752,0,0,0,95.919,395.511Z" transform="translate(-90.342 -386.755)" fill="#260f05"/>
                  <path id="パス_8525-2" data-name="パス 8525" d="M107.079,405.028c.567,2.174.567,4.537-1.323,5.387a4.2,4.2,0,0,1-4.253-.472l1.134-.567-.473-.851h1.323v-1.134A3,3,0,0,0,107.079,405.028Z" transform="translate(-95.359 -395.66)" fill="#260f05"/>
                  <path id="パス_8526-2" data-name="パス 8526" d="M82.062,377.378a.9.9,0,0,1,1.763-.226.976.976,0,0,0,.789.037c1.039-.378,3.78-2.269,5.86-1.7,2.918.8,3.609,3.227,2.9,4.975a1.409,1.409,0,0,1-.512.855.947.947,0,0,1-.552.272,1.392,1.392,0,0,1-1.664-.919,1.191,1.191,0,0,1-.054-.735,1.412,1.412,0,0,1,.243-.55c.005-.008.007-.016.013-.023.657-.986-1.229-1.89-3.025-1.418s-4.165.89-5.1.378c-.4-.217-.573-.447-.612-.666A.878.878,0,0,1,82.062,377.378Z" transform="translate(-82.062 -375.383)" fill="#260f05"/>
                </g>
                <g id="グループ_638-2" data-name="グループ 638" transform="translate(1.053 8.626)">
                  <path id="パス_8527-2" data-name="パス 8527" d="M86.343,402.764a1.945,1.945,0,0,1,.61.6,1.606,1.606,0,0,1,.258.852,1.39,1.39,0,0,1-.263.813,1.863,1.863,0,0,1-.748.589.567.567,0,0,1-.476-1.03.735.735,0,0,0,.3-.22.243.243,0,0,0,.051-.152.475.475,0,0,0-.083-.246.808.808,0,0,0-.251-.248.567.567,0,0,1,.6-.962Z" transform="translate(-85.395 -402.678)" fill="#db0701"/>
                </g>
              </g>
            </g>
          </g>
          <path id="パス_8528-2" data-name="パス 8528" d="M98.153,381c-2.458,7.181-12.287,9.45-17.96,9.45V350a16.9,16.9,0,0,1,8.845,2.35,16.279,16.279,0,0,1,5.528,5.522,18.142,18.142,0,0,1,1.507,3.091C98.343,367.01,100.607,373.818,98.153,381Z" transform="translate(-61.171 -350)" fill="#240303" opacity="0.18"/>
        </g>
      </g>
    </g>
  </g>
</svg>
