<svg xmlns="http://www.w3.org/2000/svg" width="365.495" height="47.306" viewBox="0 0 365.495 47.306">
  <g id="タイトル" transform="translate(-448.212 -85.669)">
    <path id="パス_33073" data-name="パス 33073" d="M17.784-15.025a20.075,20.075,0,0,0,5.957-.826,1.327,1.327,0,0,0,1-1.652l-1-4.424a1.332,1.332,0,0,0-1.711-1.062,6.3,6.3,0,0,1-1.475.177c-2.359,0-4.07-1.416-4.07-4.9V-38.442a1.393,1.393,0,0,1,1.475-1.475h4.6a1.393,1.393,0,0,0,1.475-1.475v-4.837A1.393,1.393,0,0,0,22.562-47.7h-4.6a1.393,1.393,0,0,1-1.475-1.475V-54.6a1.393,1.393,0,0,0-1.475-1.475H9.526a1.469,1.469,0,0,0-1.475,1.3l-.767,5.9a1.5,1.5,0,0,1-1.357,1.3l-2.359.177a1.4,1.4,0,0,0-1.357,1.475v4.542a1.393,1.393,0,0,0,1.475,1.475H5.043a1.393,1.393,0,0,1,1.475,1.475v10.853C6.518-20.039,9.762-15.025,17.784-15.025Zm19.642-.767h7.019a1.393,1.393,0,0,0,1.475-1.475V-33.841l.118-.354v-.118c1.711-3.952,4.483-5.427,6.724-5.427a9.525,9.525,0,0,1,1.947.177,1.417,1.417,0,0,0,1.829-1.18l1.18-5.9a1.293,1.293,0,0,0-.826-1.534,11.527,11.527,0,0,0-2.831-.295,10.126,10.126,0,0,0-7.609,4.011c-1.062,1.3-1.711,1.18-1.947-.472l-.236-1.534A1.468,1.468,0,0,0,42.794-47.7H37.426a1.393,1.393,0,0,0-1.475,1.475v28.962A1.393,1.393,0,0,0,37.426-15.792Zm35.1-36.335c3.3,0,5.663-2.123,5.663-5.073,0-3.008-2.359-5.132-5.663-5.132-3.362,0-5.722,2.123-5.722,5.132C66.8-54.25,69.16-52.127,72.522-52.127ZM68.983-15.792H76a1.393,1.393,0,0,0,1.475-1.475V-46.228A1.393,1.393,0,0,0,76-47.7H68.983a1.393,1.393,0,0,0-1.475,1.475v28.962A1.393,1.393,0,0,0,68.983-15.792Zm24.361,0h7.019a1.393,1.393,0,0,0,1.475-1.475V-36.5a1.539,1.539,0,0,1,.413-1c1.711-1.652,3.3-2.418,4.66-2.418,2.536,0,3.657,1.239,3.657,5.6v17.047a1.393,1.393,0,0,0,1.475,1.475h7.078a1.393,1.393,0,0,0,1.475-1.475V-36.5a1.539,1.539,0,0,1,.413-1c1.711-1.652,3.362-2.418,4.66-2.418,2.536,0,3.657,1.239,3.657,5.6v17.047a1.393,1.393,0,0,0,1.475,1.475h7.019a1.393,1.393,0,0,0,1.475-1.475V-35.493c0-7.963-3.008-12.977-9.968-12.977-3.48,0-6.134,1.652-8.435,3.775a1.555,1.555,0,0,1-2.6-.295c-1.652-2.3-4.07-3.48-7.668-3.48a12.282,12.282,0,0,0-8.317,3.421c-.944.826-1.652.59-1.888-.649l-.177-.826A1.42,1.42,0,0,0,98.77-47.7H93.344a1.393,1.393,0,0,0-1.475,1.475v28.962A1.393,1.393,0,0,0,93.344-15.792Z" transform="translate(446 148)" fill="#473932"/>
    <path id="パス_33072" data-name="パス 33072" d="M19.442-6.492c7.687-1.478,11.367-6.176,11.367-12.517,0-7.03-4.994-12.451-12.845-12.451-8.279,0-14.619,6.242-14.619,13.568,0,5.256,2.957,9.429,6.768,9.429,3.647,0,6.406-4.172,8.246-10.348a61.737,61.737,0,0,0,1.675-7.162.7.7,0,0,1,.986-.624c3.022,1.051,4.665,3.745,4.665,7.425,0,4.041-2.628,6.8-6.57,7.753-.558.131-1.084.263-1.741.394-.756.131-1.018.624-.591,1.281l1.84,2.891A.825.825,0,0,0,19.442-6.492ZM13.5-19.765c-1.084,3.581-2.037,5.453-3.285,5.453-1.051,0-1.971-1.413-1.971-4.074a9.179,9.179,0,0,1,6.143-8.147c.427-.164.69.066.591.526A42.378,42.378,0,0,1,13.5-19.765Z" transform="translate(600.522 138.685)" fill="#473932"/>
    <path id="パス_33070" data-name="パス 33070" d="M41.588-27.851a150.409,150.409,0,0,0-15.55-5.639,1.084,1.084,0,0,1-.793-1.057v-4.89a40.278,40.278,0,0,1,.264-4.229,1.022,1.022,0,0,0-1.1-1.233h-5.33a1.038,1.038,0,0,0-1.1,1.322,34.285,34.285,0,0,1,.264,4.141V-15.56c0,1.366-.132,3.392-.308,5.022a1.039,1.039,0,0,0,1.1,1.278h5.418a1.022,1.022,0,0,0,1.1-1.233c-.176-1.85-.308-4.141-.308-5.066v-9.163c0-.969.573-1.366,1.454-1.057a126.7,126.7,0,0,1,11.85,4.934,1.025,1.025,0,0,0,1.5-.573l2.07-5.022A1.048,1.048,0,0,0,41.588-27.851Zm34.977-15.2a24.505,24.505,0,0,1,.176,3.3v8.678c0,5.771-.617,8.722-3.392,11.718a19.02,19.02,0,0,1-8.017,4.405c-.969.264-1.189.969-.573,1.762l3.128,3.965a1.042,1.042,0,0,0,1.189.308,25.729,25.729,0,0,0,9.515-5.771c3.216-3.348,5.154-7.533,5.154-15.947v-9.119c0-1.322.044-2.379.088-3.348a1.045,1.045,0,0,0-1.1-1.189H77.711A1.052,1.052,0,0,0,76.565-43.049Zm-19.207.4c.044.793.044,1.542.044,2.07V-26.4c0,.837-.088,1.894-.132,2.775a1.019,1.019,0,0,0,1.057,1.145h5.2a1.044,1.044,0,0,0,1.1-1.189c-.044-.925-.088-1.982-.088-2.687V-40.582c0-.881.044-1.542.088-2.114a1.044,1.044,0,0,0-1.1-1.189H58.46A1.022,1.022,0,0,0,57.359-42.652Zm65.461,21.63A59.989,59.989,0,0,0,130.97-32.7c.264-.529.617-1.145.969-1.718a1.009,1.009,0,0,0-.22-1.454l-3.524-2.775a1.242,1.242,0,0,0-1.233-.132,25.455,25.455,0,0,1-2.731.837c-1.762.4-6.255,1.322-11.145,2.247a1,1,0,0,1-1.322-1.057v-2.687c0-1.145.088-2.775.22-4.1a1.066,1.066,0,0,0-1.145-1.278h-4.89a1.066,1.066,0,0,0-1.145,1.278c.132,1.322.22,3,.22,4.1v4.317a1.09,1.09,0,0,1-.925,1.1c-2.951.485-5.551.969-7.445,1.233a1.056,1.056,0,0,0-.969,1.322l.793,4.317a1.01,1.01,0,0,0,1.322.837c1.542-.308,3.612-.7,5.9-1.189a1.008,1.008,0,0,1,1.322,1.1v9.339c0,5.418,1.322,7.841,11.806,7.841a113.535,113.535,0,0,0,11.982-.749,1.091,1.091,0,0,0,.969-1.057l.132-4.537a1.024,1.024,0,0,0-1.322-1.145,69.827,69.827,0,0,1-11.938,1.189c-4.361,0-4.89-.881-4.89-3.348v-9.427a1.047,1.047,0,0,1,.881-1.057c3.084-.617,5.9-1.189,7.929-1.542,1.41-.308,1.894.352,1.057,1.542a44.009,44.009,0,0,1-3.833,4.581,1.026,1.026,0,0,0,.22,1.806l3.524,2.07A1,1,0,0,0,122.82-21.023Z" transform="translate(632.174 141.344)" fill="#473932"/>
    <path id="パス_33071" data-name="パス 33071" d="M198.673-44.154l-4.317,1.366a1.046,1.046,0,0,0-.661,1.542c1.189,2.643,2.731,6.652,3.612,9.251a1.041,1.041,0,0,0,1.454.7l4.317-1.5a1.065,1.065,0,0,0,.661-1.366c-.925-2.731-2.687-7.136-3.788-9.471A.973.973,0,0,0,198.673-44.154ZM211.184-41.6c-.793,5.418-3,12.467-6.167,16.475a33.592,33.592,0,0,1-14.757,10c-1.1.4-1.278,1.1-.485,1.894l3.833,3.877a1.1,1.1,0,0,0,1.189.264A38.556,38.556,0,0,0,210.655-21.2c3.436-4.581,5.9-11.586,7-15.771.22-.749.485-1.674.793-2.6a1.083,1.083,0,0,0-.749-1.542l-5.11-1.41A1.04,1.04,0,0,0,211.184-41.6ZM187-41.511l-4.361,1.542a1.009,1.009,0,0,0-.617,1.542c1.189,2.6,2.951,7.092,3.965,9.824a1.046,1.046,0,0,0,1.41.661l4.449-1.674a1,1,0,0,0,.661-1.366c-1.013-2.775-2.907-7.225-4.185-9.956A1.026,1.026,0,0,0,187-41.511Z" transform="translate(595.155 141.412)" fill="#473932"/>
  </g>
</svg>
