<svg xmlns="http://www.w3.org/2000/svg" width="26.397" height="26.223" viewBox="0 0 26.397 26.223">
  <g id="line_nonactive" transform="translate(-1112.504 -104.835)">
    <path id="Icon_awesome-grip-lines" data-name="Icon awesome-grip-lines" d="M25.572,11.25H.825c-.454,0-.825.506-.825,1.125v2.25c0,.619.371,1.125.825,1.125H25.572c.454,0,.825-.506.825-1.125v-2.25C26.4,11.756,26.026,11.25,25.572,11.25Z" transform="translate(1112.504 115.308)" fill="#9d9d9d"/>
    <path id="Icon_awesome-grip-lines-2" data-name="Icon awesome-grip-lines" d="M25.572,11.25H.825c-.454,0-.825.506-.825,1.125v2.25c0,.619.371,1.125.825,1.125H25.572c.454,0,.825-.506.825-1.125v-2.25C26.4,11.756,26.026,11.25,25.572,11.25Z" transform="translate(1112.504 104.446)" fill="#9d9d9d"/>
    <path id="Icon_awesome-grip-lines-3" data-name="Icon awesome-grip-lines" d="M25.572,11.25H.825c-.454,0-.825.506-.825,1.125v2.25c0,.619.371,1.125.825,1.125H25.572c.454,0,.825-.506.825-1.125v-2.25C26.4,11.756,26.026,11.25,25.572,11.25Z" transform="translate(1112.504 93.585)" fill="#9d9d9d"/>
  </g>
</svg>
