<?xml version="1.0" encoding="utf-8"?>
<svg viewBox="9.339 22.585 292.962 81.313" width="292.962" height="81.313" xmlns="http://www.w3.org/2000/svg">
  <g id="logo" transform="matrix(1, 0, 0, 1, -217.789444, -234.068054)">
    <g id="グループ_1955" data-name="グループ 1955" transform="translate(204.557 304.307) rotate(-41)">
      <g id="多角形_2" data-name="多角形 2" transform="translate(30.463 35.464)" fill="#fc9f81">
        <path d="M 39.65034484863281 35.91425323486328 L 1.727733492851257 35.91425323486328 C 1.402773499488831 35.91425323486328 1.111583471298218 35.74634170532227 0.9487935304641724 35.46509170532227 C 0.7860035300254822 35.18384170532227 0.7854635119438171 34.84771347045898 0.9473335146903992 34.56593322753906 L 19.90863418579102 1.559212327003479 C 20.07111358642578 1.276382327079773 20.36285400390625 1.107532262802124 20.68903350830078 1.107532262802124 C 21.01521301269531 1.107532262802124 21.30695343017578 1.276382327079773 21.46943283081055 1.559212327003479 L 40.43074417114258 34.56593322753906 C 40.59261322021484 34.84771347045898 40.59206390380859 35.18385314941406 40.42927169799805 35.46510314941406 C 40.26649475097656 35.74634170532227 39.97530364990234 35.91425323486328 39.65034484863281 35.91425323486328 Z" stroke="none"/>
        <path d="M 20.68903350830078 1.207523345947266 C 20.39909362792969 1.207523345947266 20.13977432250977 1.357624053955078 19.9953441619873 1.609024047851562 L 1.034042358398438 34.61574172973633 C 0.8901634216308594 34.8662109375 0.8906440734863281 35.16499328613281 1.035343170166016 35.41499328613281 C 1.180034637451172 35.66499328613281 1.438873291015625 35.81424331665039 1.727733612060547 35.81424331665039 L 39.65034484863281 35.81424331665039 C 39.93919372558594 35.81424331665039 40.19803237915039 35.66499328613281 40.34272384643555 35.41499328613281 C 40.48742294311523 35.16500091552734 40.4879035949707 34.8662109375 40.34402465820312 34.61574172973633 L 21.38272285461426 1.609024047851562 C 21.2382926940918 1.357624053955078 20.97897338867188 1.207523345947266 20.68903350830078 1.207523345947266 M 20.68903350830078 1.007526397705078 C 21.0264835357666 1.007526397705078 21.36393356323242 1.174816131591797 21.55614280700684 1.509403228759766 L 40.5174446105957 34.51612091064453 C 40.90042495727539 35.18279266357422 40.41917419433594 36.01424407958984 39.65034484863281 36.01424407958984 L 1.727733612060547 36.01424407958984 C 0.958892822265625 36.01424407958984 0.4776420593261719 35.18279266357422 0.8606224060058594 34.51612091064453 L 19.82192420959473 1.509403228759766 C 20.01413345336914 1.174816131591797 20.35158348083496 1.007526397705078 20.68903350830078 1.007526397705078 Z" stroke="none" fill="#fff"/>
      </g>
      <g id="多角形_2-2" data-name="多角形 2" transform="translate(82.065 17.749) rotate(60)" fill="#f5f397">
        <path d="M 39.42250442504883 35.39888000488281 L 1.735596299171448 35.39888000488281 C 1.40989625453949 35.39888000488281 1.118366241455078 35.23040008544922 0.9557662606239319 34.94819259643555 C 0.7931762337684631 34.66598129272461 0.7936162352561951 34.32928085327148 0.95696622133255 34.04750061035156 L 19.80041694641113 1.542520999908447 C 19.96326637268066 1.261610984802246 20.25434684753418 1.093901038169861 20.57904624938965 1.093901038169861 C 20.90374565124512 1.093901038169861 21.19482612609863 1.261610984802246 21.35767555236816 1.542520999908447 L 40.20113754272461 34.04750061035156 C 40.36447525024414 34.32928085327148 40.36492538452148 34.66599273681641 40.20232772827148 34.94819259643555 C 40.03972625732422 35.23040008544922 39.74820709228516 35.39888000488281 39.42250442504883 35.39888000488281 Z" stroke="none"/>
        <path d="M 20.57904624938965 1.193901062011719 C 20.2904167175293 1.193901062011719 20.03168678283691 1.342971801757812 19.88693618774414 1.592681884765625 L 1.043487548828125 34.09766006469727 C 0.898284912109375 34.34812164306641 0.8978843688964844 34.64742279052734 1.042415618896484 34.89826965332031 C 1.186946868896484 35.14912033081055 1.446086883544922 35.29888153076172 1.735595703125 35.29888153076172 L 39.42250442504883 35.29888153076172 C 39.71201705932617 35.29888153076172 39.97114562988281 35.14912033081055 40.11567687988281 34.89826965332031 C 40.26020812988281 34.64742279052734 40.25981521606445 34.34812164306641 40.11461639404297 34.09766006469727 L 21.27115631103516 1.592681884765625 C 21.12640571594238 1.342979431152344 20.86766624450684 1.193901062011719 20.57904624938965 1.193901062011719 M 20.57904624938965 0.9939002990722656 C 20.9152946472168 0.9939002990722656 21.25154113769531 1.160057067871094 21.44418716430664 1.49237060546875 L 40.28764724731445 33.99735260009766 C 40.67411804199219 34.66402053833008 40.19308471679688 35.49888229370117 39.42250442504883 35.49888229370117 L 1.735595703125 35.49888229370117 C 0.9650077819824219 35.49888229370117 0.4839744567871094 34.66402053833008 0.8704566955566406 33.99735260009766 L 19.71390533447266 1.49237060546875 C 19.90655136108398 1.160057067871094 20.2427978515625 0.9939002990722656 20.57904624938965 0.9939002990722656 Z" stroke="none" fill="#fff"/>
      </g>
      <g id="多角形_3" data-name="多角形 3" transform="translate(102.644 17.749) rotate(120)" fill="#5ca1e5">
        <path d="M 39.42252731323242 35.39886093139648 L 1.73559582233429 35.39886093139648 C 1.409895777702332 35.39886093139648 1.118375778198242 35.23038101196289 0.9557757973670959 34.94816970825195 C 0.7931757569313049 34.66595840454102 0.7936257719993591 34.32925796508789 0.9569658041000366 34.04747772216797 L 19.8004264831543 1.542519569396973 C 19.96327590942383 1.261609554290771 20.25435638427734 1.093899607658386 20.57905578613281 1.093899607658386 C 20.90375518798828 1.093899607658386 21.1948356628418 1.261609554290771 21.35768508911133 1.542519569396973 L 40.20115661621094 34.04747772216797 C 40.36449432373047 34.32925796508789 40.36494445800781 34.66595840454102 40.20234680175781 34.94816970825195 C 40.03974533081055 35.23038101196289 39.74822616577148 35.39886093139648 39.42252731323242 35.39886093139648 Z" stroke="none"/>
        <path d="M 20.57905578613281 1.193901062011719 C 20.29042625427246 1.193901062011719 20.03169631958008 1.342967987060547 19.8869457244873 1.592678070068359 L 1.043487548828125 34.09764099121094 C 0.898284912109375 34.34809875488281 0.8978843688964844 34.64738845825195 1.042415618896484 34.89823913574219 C 1.186946868896484 35.14910125732422 1.446086883544922 35.29885864257812 1.735595703125 35.29885864257812 L 39.42252731323242 35.29885864257812 C 39.7120361328125 35.29885864257812 39.97116470336914 35.14910125732422 40.11569595336914 34.89825057983398 C 40.26022720336914 34.64738845825195 40.25983428955078 34.34809875488281 40.1146354675293 34.09764099121094 L 21.27116584777832 1.592678070068359 C 21.12641525268555 1.342979431152344 20.86767578125 1.193901062011719 20.57905578613281 1.193901062011719 M 20.57905578613281 0.993896484375 C 20.91530418395996 0.993896484375 21.25155067443848 1.160053253173828 21.4441967010498 1.49237060546875 L 40.28766632080078 33.99732971191406 C 40.67413711547852 34.66399002075195 40.19310760498047 35.49885940551758 39.42252731323242 35.49885940551758 L 1.735595703125 35.49885940551758 C 0.9650039672851562 35.49885940551758 0.4839744567871094 34.66399002075195 0.8704566955566406 33.99732971191406 L 19.71391487121582 1.49237060546875 C 19.90656089782715 1.160053253173828 20.24280738830566 0.993896484375 20.57905578613281 0.993896484375 Z" stroke="none" fill="#fff"/>
      </g>
      <g id="多角形_4" data-name="多角形 4" transform="translate(71.841 35.464) rotate(180)" fill="#e55c6e">
        <path d="M 39.63157653808594 35.14798355102539 L 1.746487379074097 35.14798355102539 C 1.419777274131775 35.14798355102539 1.127797365188599 34.97871398925781 0.9654573202133179 34.69518280029297 C 0.8031173348426819 34.41165542602539 0.8049373030662537 34.07417297363281 0.9703173041343689 33.79240417480469 L 19.91285705566406 1.519923686981201 C 20.07619667053223 1.241643786430359 20.36635780334473 1.075503706932068 20.68903732299805 1.075503706932068 C 21.0117073059082 1.075503706932068 21.30186653137207 1.241643786430359 21.46520805358887 1.519923686981201 L 40.40775680541992 33.79240417480469 C 40.57313919067383 34.07416534423828 40.57495880126953 34.41165542602539 40.41261672973633 34.69518280029297 C 40.25026702880859 34.97871398925781 39.95829772949219 35.14798355102539 39.63157653808594 35.14798355102539 Z" stroke="none"/>
        <path d="M 20.68902778625488 1.175502777099609 C 20.40219688415527 1.175502777099609 20.144287109375 1.323173522949219 19.99909782409668 1.570533752441406 L 1.056556701660156 33.84302520751953 C 0.9095458984375 34.09348297119141 0.9079360961914062 34.39347457885742 1.052238464355469 34.64549255371094 C 1.196548461914062 34.89752197265625 1.456077575683594 35.0479850769043 1.746486663818359 35.0479850769043 L 39.63157653808594 35.0479850769043 C 39.9219970703125 35.0479850769043 40.18152618408203 34.89752197265625 40.32582855224609 34.64549255371094 C 40.47013854980469 34.39346313476562 40.4685173034668 34.09348297119141 40.32151794433594 33.84302520751953 L 21.37896728515625 1.570533752441406 C 21.23377799987793 1.323184967041016 20.97585678100586 1.175502777099609 20.68902778625488 1.175502777099609 M 20.68903160095215 0.9755020141601562 C 21.02362823486328 0.9755020141601562 21.35822296142578 1.140098571777344 21.55144691467285 1.469295501708984 L 40.49399566650391 33.74178314208984 C 40.88528823852539 34.40842437744141 40.40456771850586 35.24798202514648 39.63157653808594 35.24798202514648 L 1.746486663818359 35.24798202514648 C 0.9734954833984375 35.24798202514648 0.4927864074707031 34.40842437744141 0.8840789794921875 33.74178314208984 L 19.82661819458008 1.469295501708984 C 20.01984214782715 1.140098571777344 20.35443687438965 0.9755020141601562 20.68903160095215 0.9755020141601562 Z" stroke="none" fill="#fff"/>
      </g>
      <g id="多角形_5" data-name="多角形 5" transform="translate(20.579 53.539) rotate(-120)" fill="#92d4c4">
        <path d="M 39.42250442504883 35.39888000488281 L 1.735596299171448 35.39888000488281 C 1.40989625453949 35.39888000488281 1.118366241455078 35.23040008544922 0.9557662606239319 34.94819259643555 C 0.7931762337684631 34.66598129272461 0.7936162352561951 34.32928085327148 0.95696622133255 34.04750061035156 L 19.80041694641113 1.542520999908447 C 19.96326637268066 1.261610984802246 20.25434684753418 1.093901038169861 20.57904624938965 1.093901038169861 C 20.90374565124512 1.093901038169861 21.19482612609863 1.261610984802246 21.35767555236816 1.542520999908447 L 40.20113754272461 34.04750061035156 C 40.36447525024414 34.32928085327148 40.36492538452148 34.66599273681641 40.20232772827148 34.94819259643555 C 40.03972625732422 35.23040008544922 39.74820709228516 35.39888000488281 39.42250442504883 35.39888000488281 Z" stroke="none"/>
        <path d="M 20.57904624938965 1.193901062011719 C 20.2904167175293 1.193901062011719 20.03168678283691 1.342971801757812 19.88693618774414 1.592681884765625 L 1.043487548828125 34.09766006469727 C 0.898284912109375 34.34812164306641 0.8978843688964844 34.64742279052734 1.042415618896484 34.89826965332031 C 1.186946868896484 35.14912033081055 1.446086883544922 35.29888153076172 1.735595703125 35.29888153076172 L 39.42250442504883 35.29888153076172 C 39.71201705932617 35.29888153076172 39.97114562988281 35.14912033081055 40.11567687988281 34.89826965332031 C 40.26020812988281 34.64742279052734 40.25981521606445 34.34812164306641 40.11461639404297 34.09766006469727 L 21.27115631103516 1.592681884765625 C 21.12640571594238 1.342979431152344 20.86766624450684 1.193901062011719 20.57904624938965 1.193901062011719 M 20.57904624938965 0.9939002990722656 C 20.9152946472168 0.9939002990722656 21.25154113769531 1.160057067871094 21.44418716430664 1.49237060546875 L 40.28764724731445 33.99735260009766 C 40.67411804199219 34.66402053833008 40.19308471679688 35.49888229370117 39.42250442504883 35.49888229370117 L 1.735595703125 35.49888229370117 C 0.9650077819824219 35.49888229370117 0.4839744567871094 34.66402053833008 0.8704566955566406 33.99735260009766 L 19.71390533447266 1.49237060546875 C 19.90655136108398 1.160057067871094 20.2427978515625 0.9939002990722656 20.57904624938965 0.9939002990722656 Z" stroke="none" fill="#fff"/>
      </g>
      <g id="多角形_6" data-name="多角形 6" transform="translate(0 53.539) rotate(-60)" fill="#c47ebc">
        <path d="M 39.42252731323242 35.39886093139648 L 1.73559582233429 35.39886093139648 C 1.409895777702332 35.39886093139648 1.118375778198242 35.23038101196289 0.9557757973670959 34.94816970825195 C 0.7931757569313049 34.66595840454102 0.7936257719993591 34.32925796508789 0.9569658041000366 34.04747772216797 L 19.8004264831543 1.542519569396973 C 19.96327590942383 1.261609554290771 20.25435638427734 1.093899607658386 20.57905578613281 1.093899607658386 C 20.90375518798828 1.093899607658386 21.1948356628418 1.261609554290771 21.35768508911133 1.542519569396973 L 40.20115661621094 34.04747772216797 C 40.36449432373047 34.32925796508789 40.36494445800781 34.66595840454102 40.20234680175781 34.94816970825195 C 40.03974533081055 35.23038101196289 39.74822616577148 35.39886093139648 39.42252731323242 35.39886093139648 Z" stroke="none"/>
        <path d="M 20.57905578613281 1.193901062011719 C 20.29042625427246 1.193901062011719 20.03169631958008 1.342967987060547 19.8869457244873 1.592678070068359 L 1.043487548828125 34.09764099121094 C 0.898284912109375 34.34809875488281 0.8978843688964844 34.64738845825195 1.042415618896484 34.89823913574219 C 1.186946868896484 35.14910125732422 1.446086883544922 35.29885864257812 1.735595703125 35.29885864257812 L 39.42252731323242 35.29885864257812 C 39.7120361328125 35.29885864257812 39.97116470336914 35.14910125732422 40.11569595336914 34.89825057983398 C 40.26022720336914 34.64738845825195 40.25983428955078 34.34809875488281 40.1146354675293 34.09764099121094 L 21.27116584777832 1.592678070068359 C 21.12641525268555 1.342979431152344 20.86767578125 1.193901062011719 20.57905578613281 1.193901062011719 M 20.57905578613281 0.993896484375 C 20.91530418395996 0.993896484375 21.25155067443848 1.160053253173828 21.4441967010498 1.49237060546875 L 40.28766632080078 33.99732971191406 C 40.67413711547852 34.66399002075195 40.19310760498047 35.49885940551758 39.42252731323242 35.49885940551758 L 1.735595703125 35.49885940551758 C 0.9650039672851562 35.49885940551758 0.4839744567871094 34.66399002075195 0.8704566955566406 33.99732971191406 L 19.71391487121582 1.49237060546875 C 19.90656089782715 1.160053253173828 20.24280738830566 0.993896484375 20.57905578613281 0.993896484375 Z" stroke="none" fill="#fff"/>
      </g>
    </g>
    <text id="trim" transform="translate(332 321)" fill="#323232" font-size="79" font-weight="bolder" font-family="MOBO" letter-spacing="0.075em" style="white-space: pre;"><tspan x="0" y="0">tr</tspan><tspan y="0" fill="#fc9f81">i</tspan><tspan y="0">m</tspan></text>
  </g>
</svg>