<svg xmlns="http://www.w3.org/2000/svg" width="115" height="71" viewBox="0 0 115 71">
  <g id="margin" transform="translate(-434 -326.807)">
    <rect id="長方形_593" data-name="長方形 593" width="115" height="71" rx="8" transform="translate(434 326.807)" fill="#3b3b3b"/>
    <path id="Icon_material-space-bar" data-name="Icon material-space-bar" d="M17.772,13.5v3.363H7.682V13.5H6v5.045H19.453V13.5Z" transform="translate(517.925 352.386)" fill="#fc9f81"/>
    <path id="Icon_material-space-bar-2" data-name="Icon material-space-bar" d="M17.772,13.5v3.363H7.682V13.5H6v5.045H19.453V13.5Z" transform="translate(439.228 352.386)" fill="#fc9f81"/>
    <path id="パス_27410" data-name="パス 27410" d="M4.379-15.405c.386-1.352.773-2.827,1.106-4.249h.088c.369,1.4.72,2.9,1.124,4.249l.386,1.422H3.992ZM-.116-8.628H2.518l.913-3.336H7.644l.913,3.336h2.721L7.1-21.638H4.045Zm14.415,0h4.635c2.862,0,5.039-1.211,5.039-3.827a2.954,2.954,0,0,0-2.441-3.072v-.088a2.947,2.947,0,0,0,1.773-2.809c0-2.423-2.037-3.213-4.705-3.213H14.3Zm2.6-7.707v-3.3h1.545c1.563,0,2.335.456,2.335,1.6,0,1.036-.72,1.7-2.37,1.7Zm0,5.706v-3.792h1.808c1.791,0,2.739.544,2.739,1.808,0,1.352-.966,1.984-2.739,1.984ZM33.05-8.382A5.258,5.258,0,0,0,37.194-10.3l-1.369-1.615a3.584,3.584,0,0,1-2.686,1.282c-2.054,0-3.389-1.7-3.389-4.53,0-2.792,1.475-4.477,3.441-4.477A3.423,3.423,0,0,1,35.6-18.548l1.352-1.65a5.3,5.3,0,0,0-3.81-1.668c-3.283,0-6.04,2.511-6.04,6.795C27.1-10.735,29.767-8.382,33.05-8.382Zm7.725-.246h3.7c3.828,0,6.286-2.177,6.286-6.549,0-4.389-2.458-6.461-6.426-6.461H40.776Zm2.6-2.089v-8.831h.808c2.423,0,3.933,1.194,3.933,4.372,0,3.16-1.51,4.459-3.933,4.459Z" transform="translate(465.979 377.897)" fill="#fff"/>
  </g>
</svg>
