<svg xmlns="http://www.w3.org/2000/svg" width="172" height="201.418" viewBox="0 0 172 201.418">
  <g id="にんじゃ" transform="translate(0 0)">
    <g id="グループ_2084" data-name="グループ 2084" transform="translate(0 0)">
      <ellipse id="楕円形_11" data-name="楕円形 11" cx="86" cy="22.5" rx="86" ry="22.5" transform="translate(0 156.418)" fill="#777676"/>
      <path id="パス_26137" data-name="パス 26137" d="M24.522,0H67.208A24.522,24.522,0,0,1,91.73,24.522L89.005,62.667c0,13.543-8.254,24.522-21.8,24.522H24.522c-13.543,0-21.8-10.979-21.8-24.522L0,24.522A24.522,24.522,0,0,1,24.522,0Z" transform="translate(39.736 82.962)" fill="#764b8c"/>
      <g id="_4" data-name="4" transform="translate(30.653)">
        <g id="グループ_2067" data-name="グループ 2067" transform="translate(0)">
          <g id="グループ_2066" data-name="グループ 2066">
            <g id="グループ_2060" data-name="グループ 2060" transform="translate(0 0.811)">
              <path id="パス_26087" data-name="パス 26087" d="M137.976,368.712c-6.478,5.581-7.833,10.852-6.463,14.491a5.58,5.58,0,0,1,.441,2.04c-.065,2.023-2.269,2.546-2.269,12.076,0,1.452-3.753-.457-8.191-3.247-6.463-4.047-14.393-9.922-14.393-9.922l-1.942-2.3L79.164,350.909l-.016-.016h49.167a19.405,19.405,0,0,1,5.923.848c4.161,1.339,6.511,4.129,7.213,7.213A10.014,10.014,0,0,1,137.976,368.712Z" transform="translate(-25.429 -350.893)" fill="#5c2e71"/>
              <path id="パス_26088" data-name="パス 26088" d="M130.637,406.2a55.145,55.145,0,0,1-14.571,37.4c-.637.686-1.29,1.355-1.943,2.007-.668.669-1.354,1.306-2.055,1.926s-1.4,1.223-2.138,1.811a55.234,55.234,0,0,1-9.432,6.12c-1.257.652-2.546,1.256-3.868,1.795-.865.359-1.762.7-2.659,1.028-.881.31-1.779.6-2.677.881-.93.294-1.876.539-2.823.767-.457.114-.914.228-1.37.326-.963.213-1.926.391-2.905.539-.375.065-.75.131-1.125.18-.229.033-.457.064-.7.1-.8.1-1.616.18-2.431.245-.539.049-1.077.082-1.616.114-.391.016-.783.033-1.191.048-.6.016-1.208.033-1.812.033-1.567,0-3.1-.064-4.635-.2q-.759-.049-1.517-.147a50.86,50.86,0,0,1-5.956-1c-.458-.1-.915-.212-1.371-.326-1-.245-1.991-.522-2.97-.816-.93-.31-1.86-.619-2.774-.963-.457-.163-.914-.342-1.371-.522a44.012,44.012,0,0,1-4.013-1.811,49.963,49.963,0,0,1-6.283-3.656c-.016-.016-.016-.016-.033-.016-.277-.179-.555-.359-.816-.554-.457-.327-.914-.653-1.355-.979a.62.62,0,0,0-.163-.131c-.375-.294-.767-.588-1.143-.9-.375-.293-.75-.6-1.126-.914-.359-.31-.734-.619-1.093-.946-.36-.31-.718-.637-1.061-.963-.311-.277-.6-.571-.914-.865-.392-.375-.784-.767-1.159-1.159-.342-.359-.669-.7-1-1.061s-.653-.717-.963-1.076a52.271,52.271,0,0,1-3.525-4.5,55.292,55.292,0,0,1,43.651-87.106c.522-.016,1.061-.016,1.583-.016a55.268,55.268,0,0,1,55.319,55.3Z" transform="translate(-20 -350.893)" fill="#6e4184"/>
            </g>
            <rect id="長方形_514" data-name="長方形 514" width="82.451" height="20.409" transform="translate(13.613 31.762)" fill="#a29c98"/>
            <path id="パス_26135" data-name="パス 26135" d="M4.412,0,40.661,2.409a11.353,11.353,0,0,1,0,22.705H13.329c-6.27,0-12.936-8.835-12.936-15.1S-1.858,0,4.412,0Z" transform="translate(15.324 90.023) rotate(29)" fill="#603a71"/>
            <path id="パス_26136" data-name="パス 26136" d="M13.187,0H40.518a11.353,11.353,0,1,1,0,22.705L4.691,23.813c-6.27,0-4.444-3.88-4.444-10.15S6.917,0,13.187,0Z" transform="translate(106.582 109.068) rotate(147)" fill="#603a71"/>
            <path id="パス_26089" data-name="パス 26089" d="M117.44,422H34.989v27.046a55.286,55.286,0,0,0,82.451,1.083Z" transform="translate(-21.376 -356.608)" fill="#764b8c"/>
            <rect id="長方形_515" data-name="長方形 515" width="82.451" height="20.409" transform="translate(13.613 48.088)" fill="#271d20"/>
            <g id="グループ_2063" data-name="グループ 2063" transform="translate(50.342 36.811)">
              <path id="パス_26094" data-name="パス 26094" d="M82.251,391.8a3.928,3.928,0,0,1-5.556,5.556Z" transform="translate(-75.545 -390.648)" fill="#948c8c"/>
              <path id="パス_26095" data-name="パス 26095" d="M76.579,397.238a3.928,3.928,0,1,1,5.556-5.556Z" transform="translate(-75.429 -390.532)" fill="#b7b2ac"/>
            </g>
            <g id="グループ_2064" data-name="グループ 2064" transform="translate(71.34 36.811)">
              <path id="パス_26096" data-name="パス 26096" d="M105.372,391.8a3.929,3.929,0,0,1-5.556,5.556Z" transform="translate(-98.666 -390.648)" fill="#948c8c"/>
              <path id="パス_26097" data-name="パス 26097" d="M99.7,397.238a3.929,3.929,0,1,1,5.556-5.556Z" transform="translate(-98.55 -390.532)" fill="#b7b2ac"/>
            </g>
            <g id="グループ_2065" data-name="グループ 2065" transform="translate(29.342 36.811)">
              <path id="パス_26098" data-name="パス 26098" d="M59.13,391.8a3.928,3.928,0,0,1-5.556,5.556Z" transform="translate(-52.424 -390.648)" fill="#948c8c"/>
              <path id="パス_26099" data-name="パス 26099" d="M53.458,397.238a3.928,3.928,0,1,1,5.556-5.556Z" transform="translate(-52.307 -390.532)" fill="#b7b2ac"/>
            </g>
            <path id="パス_26130" data-name="パス 26130" d="M15.222,6,7.611,9.7,0,6" transform="translate(26.844 51.061)" fill="none" stroke="#f0f0f0" stroke-linecap="round" stroke-linejoin="round" stroke-width="3"/>
            <path id="パス_26131" data-name="パス 26131" d="M128.411,350.8c-15.155,0-32.246-1.746-48.292-.09V461.343a55.216,55.216,0,0,0,53.136-72.9c-4.075-12.072-2.633-12.007,5.609-21.438C145.354,359.579,136.222,350.8,128.411,350.8Z" transform="translate(-25.518 -350)" fill="#271d20" opacity="0.19"/>
            <path id="パス_26132" data-name="パス 26132" d="M15.222,6,7.611,9.7,0,6" transform="translate(68.007 51.061)" fill="none" stroke="#f0f0f0" stroke-linecap="round" stroke-linejoin="round" stroke-width="3"/>
          </g>
        </g>
      </g>
      <ellipse id="楕円形_9" data-name="楕円形 9" cx="9.399" cy="8.929" rx="9.399" ry="8.929" transform="translate(72.063 115.886)" fill="#f9ca9e"/>
      <path id="パス_26129" data-name="パス 26129" d="M2.9,0C4.5,0,4.831,2.725,4.831,2.725L5.8,9.99a2.816,2.816,0,0,1-2.9,2.725A2.816,2.816,0,0,1,0,9.99L.966,2.725S1.3,0,2.9,0Z" transform="translate(78.789 107.484)" fill="#f9ca9e"/>
      <path id="パス_26138" data-name="パス 26138" d="M-.567.064l87.261.07-.465,8.954H-.052Z" transform="translate(42.512 137.449)" fill="#603a71"/>
      <circle id="楕円形_10" data-name="楕円形 10" cx="9.399" cy="9.399" r="9.399" transform="translate(79.582 116.826)" fill="#fc9f81"/>
      <path id="パス_26134" data-name="パス 26134" d="M15.675.973,86.933,0a15.757,15.757,0,0,1,15.7,15.873A15.855,15.855,0,0,1,86.892,31.788L15.758,31C7.078,31.01-.011,24.784,0,16.006S6.995.984,15.675.973Z" transform="translate(34.554 160.162) rotate(-9)" fill="#522a62"/>
      <path id="パス_26133" data-name="パス 26133" d="M15.958,0,82.167,1.023c8.833.02,15.9,6.273,15.92,15.048s-7.235,15-16.068,14.977l-65.988.73A16.029,16.029,0,0,1,0,15.854,15.856,15.856,0,0,1,15.958,0Z" transform="matrix(0.966, 0.259, -0.259, 0.966, 35.552, 140.123)" fill="#603a71"/>
    </g>
  </g>
</svg>
