<svg xmlns="http://www.w3.org/2000/svg" width="252.41" height="135.406" viewBox="0 0 252.41 135.406">
  <g id="pc_file" transform="translate(-514 -352.53)">
    <g id="_5" data-name="5" transform="translate(344 2.53)">
      <g id="グループ_2548" data-name="グループ 2548" transform="translate(170 350)">
        <path id="パス_27976" data-name="パス 27976" d="M379.568,354.75V480.656a4.786,4.786,0,0,1-4.76,4.75H189.469a4.786,4.786,0,0,1-4.76-4.75V354.75a4.766,4.766,0,0,1,4.76-4.75H374.808A4.766,4.766,0,0,1,379.568,354.75Z" transform="translate(-155.933 -350)" fill="#1b1518"/>
        <path id="パス_27977" data-name="パス 27977" d="M227.863,365.043l0,.006v-.006Z" transform="translate(-113.76 -335.379)" fill="#729567"/>
        <path id="パス_27978" data-name="パス 27978" d="M227.864,366.679h.389l-.389-1.633Z" transform="translate(-113.758 -335.373)" fill="#fff" opacity="0.3"/>
        <g id="グループ_2547" data-name="グループ 2547" transform="translate(35.961 8.723)">
          <path id="パス_27979" data-name="パス 27979" d="M367.647,360.876V469.361a6.455,6.455,0,0,1-6.475,6.417H194.859a5.75,5.75,0,0,1-1.411-.172,6.4,6.4,0,0,1-5.067-6.245V360.876a6.457,6.457,0,0,1,6.477-6.417H361.171A6.457,6.457,0,0,1,367.647,360.876Z" transform="translate(-188.382 -354.459)" fill="#fff"/>
          <path id="パス_27980" data-name="パス 27980" d="M337.354,354.459,216.475,475.607H189.491a1.137,1.137,0,0,1-1.109-1.141V360.876a6.421,6.421,0,0,1,6.4-6.417Z" transform="translate(-188.382 -354.459)" fill="#f2f2f2"/>
        </g>
        <path id="パス_27981" data-name="パス 27981" d="M422.41,413.182l-.388,1.393-1.672,5.867c0,1.927-2.331,3.468-5.2,3.468H177.259c-2.867,0-5.2-1.541-5.2-3.468l-1.313-4.593-.718-2.547-.03-.119Z" transform="translate(-170 -288.504)" fill="#ada394"/>
        <path id="パス_27982" data-name="パス 27982" d="M287.237,413.183h0a3.457,3.457,0,0,1-3.459,3.459h-64.6a3.457,3.457,0,0,1-3.459-3.459h71.515Z" transform="translate(-125.275 -288.503)" fill="#62585b"/>
        <path id="パス_27983" data-name="パス 27983" d="M422.41,413.182v1.393H333.155c0,1.9-2.39,3.437-5.348,3.437H264.6c-2.958,0-5.348-1.542-5.348-3.437H170v-1.393h90.15a3.369,3.369,0,0,0,.174.847c.57,1.51,2.6,2.62,5.054,2.62h61.655c2.453,0,4.484-1.109,5.052-2.62a3.286,3.286,0,0,0,.176-.847Z" transform="translate(-170 -288.504)" fill="#fff" opacity="0.5"/>
        <path id="パス_27984" data-name="パス 27984" d="M301.547,413.182l-4.091,3.467-1.63,1.364-2.074,1.749-4.891,4.149H177.2c-2.844,0-5.157-1.541-5.157-3.468l-1.3-4.593-.712-2.547-.029-.119Z" transform="translate(-170 -288.504)" fill="#fff" opacity="0.1"/>
      </g>
    </g>
    <g id="_4" data-name="4" transform="translate(590.819 42.48)">
      <g id="グループ_2725" data-name="グループ 2725" transform="translate(20 350)">
        <rect id="長方形_2247" data-name="長方形 2247" width="58.525" height="42.314" rx="18.622" transform="translate(0.001 8.426)" fill="#c0a168"/>
        <rect id="長方形_2248" data-name="長方形 2248" width="32.008" height="29.583" rx="14.792" transform="translate(0.001)" fill="#c0a168"/>
        <rect id="長方形_2249" data-name="長方形 2249" width="49.917" height="25.825" transform="translate(4.305 13.397)" fill="#fff"/>
        <path id="パス_31042" data-name="パス 31042" d="M78.53,396.665v30.372a3.287,3.287,0,0,1-3.274,3.274H23.275a3.154,3.154,0,0,1-1.457-.35,3.276,3.276,0,0,1-1.476-1.476,3.225,3.225,0,0,1-.321-1.088c-.01-.114-.019-.237-.019-.36V408.672l4.305-4.305.379-.378,7.323-7.324Z" transform="translate(-20.001 -375.327)" fill="#c0a168"/>
        <path id="パス_31043" data-name="パス 31043" d="M50.751,396.665l-8.241,8.241-9.641,9.641-9.66,9.661L20.02,427.4c-.01-.114-.019-.237-.019-.36V408.672l4.305-4.305.379-.378,7.323-7.324Z" transform="translate(-20.001 -375.327)" fill="#a2825a"/>
        <path id="パス_31044" data-name="パス 31044" d="M32,396.666l-12,12H32Z" transform="translate(-20 -375.327)" fill="#fae2a9"/>
        <rect id="長方形_2250" data-name="長方形 2250" width="19.399" height="6.547" transform="translate(34.823 45.042)" fill="#e7dcca"/>
      </g>
    </g>
  </g>
</svg>
