<svg xmlns="http://www.w3.org/2000/svg" width="148.311" height="125.547" viewBox="0 0 148.311 125.547">
  <g id="rule_create" transform="translate(-2818.152 -6408.43)">
    <g id="グループ_3355" data-name="グループ 3355" transform="translate(2818.152 6408.43)">
      <g id="グループ_2715" data-name="グループ 2715" transform="translate(0 0)">
        <g id="_5" data-name="5" transform="translate(30.516)">
          <g id="グループ_2711" data-name="グループ 2711" transform="translate(0)">
            <g id="グループ_2709" data-name="グループ 2709" transform="translate(27.397 64.583)">
              <path id="パス_30500" data-name="パス 30500" d="M251.571,449.054H213.1l1.356-28.875h35.763Z" transform="translate(-200.833 -420.178)" fill="#7c6c5f"/>
              <path id="パス_30501" data-name="パス 30501" d="M251.117,439.732H213.636l.858-18.247h35.765Z" transform="translate(-200.876 -420.282)" fill="#aca6a1"/>
              <path id="パス_30502" data-name="パス 30502" d="M205.652,448.94H256.89a5.9,5.9,0,0,1,5.882,5.882h-63A5.9,5.9,0,0,1,205.652,448.94Z" transform="translate(-199.771 -422.471)" fill="#b9aea3"/>
            </g>
            <path id="パス_30503" data-name="パス 30503" d="M287.795,396.359v36.2a2.614,2.614,0,0,1-2.6,2.619H172.6a2.614,2.614,0,0,1-2.6-2.619v-36.2a2.614,2.614,0,0,1,2.6-2.619H285.193A2.614,2.614,0,0,1,287.795,396.359Z" transform="translate(-170 -353.487)" fill="#b9aea3"/>
            <path id="パス_30504" data-name="パス 30504" d="M287.795,353.411v65.98H170v-65.98h.086A4.285,4.285,0,0,1,174.274,350H283.521a4.285,4.285,0,0,1,4.187,3.411Z" transform="translate(-170 -350)" fill="#7c6c5f"/>
            <rect id="長方形_2226" data-name="長方形 2226" width="103.57" height="55.879" transform="translate(6.639 6.757)" fill="#e7e0d6"/>
          </g>
        </g>
        <g id="_4" data-name="4" transform="translate(0 33.834)">
          <g id="グループ_642" data-name="グループ 642" transform="translate(0 0)">
            <g id="グループ_641" data-name="グループ 641">
              <path id="パス_8509" data-name="パス 8509" d="M103.851,420.285c-5.574,16.282-27.859,21.427-40.722,21.427-8.013,0-19.7-2-28.7-7.437a28.193,28.193,0,0,1-10.438-10.45,21.442,21.442,0,0,1-1.581-3.54c-5.562-16.282-.416-31.719,4.717-45.428C32.267,361.124,44.7,350,63.128,350a38.326,38.326,0,0,1,20.055,5.329A36.911,36.911,0,0,1,95.716,367.85a41.127,41.127,0,0,1,3.418,7.007C104.28,388.566,109.413,404,103.851,420.285Z" transform="translate(-20 -350)" fill="#b9aea3"/>
              <g id="グループ_632" data-name="グループ 632" transform="translate(7.988 61.929)">
                <path id="パス_8511" data-name="パス 8511" d="M49.069,441.147a4.676,4.676,0,0,1,4.679-4.715c3.049,0,3.864,2.786,3.864,4.5s-.815,9.428.61,13.715-2.847,4.714-4.474,2.143A28.029,28.029,0,0,1,49.069,441.147Z" transform="translate(-36.229 -436.432)" fill="#e5ded3"/>
                <path id="パス_8512" data-name="パス 8512" d="M31.2,442.49c-.282-1.882.6-4.343,2.884-4.721s3.259,1.966,3.483,3.471.629,8.382,2.258,11.969-1.513,4.495-3.069,2.439A27.546,27.546,0,0,1,31.2,442.49Z" transform="translate(-31.148 -436.799)" fill="#e5ded3"/>
                <path id="パス_8513" data-name="パス 8513" d="M108.38,441.147a4.675,4.675,0,0,0-4.677-4.715c-3.051,0-3.864,2.786-3.864,4.5s.813,9.428-.611,13.715,2.847,4.714,4.475,2.143A28.043,28.043,0,0,0,108.38,441.147Z" transform="translate(-50.368 -436.432)" fill="#e7e0d6"/>
                <path id="パス_8514" data-name="パス 8514" d="M125.575,442.49c.281-1.882-.6-4.343-2.885-4.721s-3.258,1.966-3.483,3.471-.628,8.382-2.257,11.969,1.513,4.495,3.068,2.439A27.552,27.552,0,0,0,125.575,442.49Z" transform="translate(-55.344 -436.799)" fill="#e7e0d6"/>
              </g>
              <path id="パス_30512" data-name="パス 30512" d="M120.915,420.285c-5.574,16.282-27.859,21.427-40.722,21.427V350a38.326,38.326,0,0,1,20.055,5.329,36.911,36.911,0,0,1,12.533,12.521,41.127,41.127,0,0,1,3.418,7.007C121.345,388.566,126.478,404,120.915,420.285Z" transform="translate(-37.064 -350)" fill="#240303" opacity="0.18"/>
            </g>
          </g>
        </g>
      </g>
      <text id="作成中" transform="translate(71.156 37.726)" fill="#7c6c5f" font-size="12" font-family="HeiseiMaruGoStd-W8, Heisei Maru Gothic Std" letter-spacing="0.043em"><tspan x="0" y="0">作成中</tspan></text>
      <circle id="楕円形_36" data-name="楕円形 36" cx="1.382" cy="1.382" r="1.382" transform="translate(83.815 46.91)" fill="#7c6c5f"/>
      <circle id="楕円形_37" data-name="楕円形 37" cx="1.382" cy="1.382" r="1.382" transform="translate(89.341 46.91)" fill="#7c6c5f"/>
      <circle id="楕円形_38" data-name="楕円形 38" cx="1.382" cy="1.382" r="1.382" transform="translate(94.867 46.91)" fill="#7c6c5f"/>
    </g>
    <g id="グループ_3356" data-name="グループ 3356" transform="translate(2818.152 6408.43)" opacity="0">
      <g id="グループ_2715-2" data-name="グループ 2715" transform="translate(0 0)">
        <g id="_5-2" data-name="5" transform="translate(30.516)">
          <g id="グループ_2711-2" data-name="グループ 2711" transform="translate(0)">
            <g id="グループ_2709-2" data-name="グループ 2709" transform="translate(27.397 64.583)">
              <path id="パス_30500-2" data-name="パス 30500" d="M251.571,449.054H213.1l1.356-28.875h35.763Z" transform="translate(-200.833 -420.178)" fill="#c9c5bf"/>
              <path id="パス_30501-2" data-name="パス 30501" d="M251.117,439.732H213.636l.858-18.247h35.765Z" transform="translate(-200.876 -420.282)" fill="#aca6a1"/>
              <path id="パス_30502-2" data-name="パス 30502" d="M205.652,448.94H256.89a5.9,5.9,0,0,1,5.882,5.882h-63A5.9,5.9,0,0,1,205.652,448.94Z" transform="translate(-199.771 -422.471)" fill="#d7d4cf"/>
            </g>
            <path id="パス_30503-2" data-name="パス 30503" d="M287.795,396.359v36.2a2.614,2.614,0,0,1-2.6,2.619H172.6a2.614,2.614,0,0,1-2.6-2.619v-36.2a2.614,2.614,0,0,1,2.6-2.619H285.193A2.614,2.614,0,0,1,287.795,396.359Z" transform="translate(-170 -353.487)" fill="#d7d4cf"/>
            <path id="パス_30504-2" data-name="パス 30504" d="M287.795,353.411v65.98H170v-65.98h.086A4.285,4.285,0,0,1,174.274,350H283.521a4.285,4.285,0,0,1,4.187,3.411Z" transform="translate(-170 -350)" fill="#251e22"/>
            <rect id="長方形_2226-2" data-name="長方形 2226" width="103.57" height="55.879" transform="translate(6.639 6.757)" fill="#fffff7"/>
          </g>
        </g>
        <g id="_4-2" data-name="4" transform="translate(0 33.834)">
          <g id="グループ_642-2" data-name="グループ 642" transform="translate(0 0)">
            <g id="グループ_641-2" data-name="グループ 641">
              <path id="パス_8509-2" data-name="パス 8509" d="M103.851,420.285c-5.574,16.282-27.859,21.427-40.722,21.427-8.013,0-19.7-2-28.7-7.437a28.193,28.193,0,0,1-10.438-10.45,21.442,21.442,0,0,1-1.581-3.54c-5.562-16.282-.416-31.719,4.717-45.428C32.267,361.124,44.7,350,63.128,350a38.326,38.326,0,0,1,20.055,5.329A36.911,36.911,0,0,1,95.716,367.85a41.127,41.127,0,0,1,3.418,7.007C104.28,388.566,109.413,404,103.851,420.285Z" transform="translate(-20 -350)" fill="#fa3541"/>
              <g id="グループ_632-2" data-name="グループ 632" transform="translate(7.988 61.929)">
                <path id="パス_8511-2" data-name="パス 8511" d="M49.069,441.147a4.676,4.676,0,0,1,4.679-4.715c3.049,0,3.864,2.786,3.864,4.5s-.815,9.428.61,13.715-2.847,4.714-4.474,2.143A28.029,28.029,0,0,1,49.069,441.147Z" transform="translate(-36.229 -436.432)" fill="#f1e275"/>
                <path id="パス_8512-2" data-name="パス 8512" d="M31.2,442.49c-.282-1.882.6-4.343,2.884-4.721s3.259,1.966,3.483,3.471.629,8.382,2.258,11.969-1.513,4.495-3.069,2.439A27.546,27.546,0,0,1,31.2,442.49Z" transform="translate(-31.148 -436.799)" fill="#f1e275"/>
                <path id="パス_8513-2" data-name="パス 8513" d="M108.38,441.147a4.675,4.675,0,0,0-4.677-4.715c-3.051,0-3.864,2.786-3.864,4.5s.813,9.428-.611,13.715,2.847,4.714,4.475,2.143A28.043,28.043,0,0,0,108.38,441.147Z" transform="translate(-50.368 -436.432)" fill="#f1e275"/>
                <path id="パス_8514-2" data-name="パス 8514" d="M125.575,442.49c.281-1.882-.6-4.343-2.885-4.721s-3.258,1.966-3.483,3.471-.628,8.382-2.257,11.969,1.513,4.495,3.068,2.439A27.552,27.552,0,0,0,125.575,442.49Z" transform="translate(-55.344 -436.799)" fill="#f1e275"/>
              </g>
              <path id="パス_30512-2" data-name="パス 30512" d="M120.915,420.285c-5.574,16.282-27.859,21.427-40.722,21.427V350a38.326,38.326,0,0,1,20.055,5.329,36.911,36.911,0,0,1,12.533,12.521,41.127,41.127,0,0,1,3.418,7.007C121.345,388.566,126.478,404,120.915,420.285Z" transform="translate(-37.065 -350)" fill="#240303" opacity="0.18"/>
            </g>
          </g>
        </g>
      </g>
      <text id="作成中-2" data-name="作成中" transform="translate(71.156 37.726)" fill="#121212" font-size="12" font-weight="bold" font-family="HeiseiMaruGoStd-W8, Heisei Maru Gothic Std" letter-spacing="0.043em"><tspan x="0" y="0">作成中</tspan></text>
      <circle id="楕円形_36-2" data-name="楕円形 36" cx="1.382" cy="1.382" r="1.382" transform="translate(83.815 46.91)" fill="#251e22"/>
      <circle id="楕円形_37-2" data-name="楕円形 37" cx="1.382" cy="1.382" r="1.382" transform="translate(89.341 46.91)" fill="#251e22"/>
      <circle id="楕円形_38-2" data-name="楕円形 38" cx="1.382" cy="1.382" r="1.382" transform="translate(94.867 46.91)" fill="#251e22"/>
    </g>
  </g>
</svg>
