<svg xmlns="http://www.w3.org/2000/svg" width="161.025" height="136.309" viewBox="0 0 161.025 136.309">
  <g id="rule_make" transform="translate(-915 -365.828)">
    <g id="グループ_2715" data-name="グループ 2715" transform="translate(915 365.828)">
      <g id="_5" data-name="5" transform="translate(33.132)">
        <g id="グループ_2711" data-name="グループ 2711" transform="translate(0)">
          <g id="グループ_2709" data-name="グループ 2709" transform="translate(29.746 70.12)">
            <path id="パス_30500" data-name="パス 30500" d="M254.869,451.529H213.1l1.472-31.351H253.4Z" transform="translate(-199.782 -420.178)" fill="#c9c5bf"/>
            <path id="パス_30501" data-name="パス 30501" d="M254.33,441.3H213.636l.932-19.812H253.4Z" transform="translate(-199.783 -420.179)" fill="#aca6a1"/>
            <path id="パス_30502" data-name="パス 30502" d="M206.157,448.94h55.63a6.405,6.405,0,0,1,6.386,6.387h-68.4A6.405,6.405,0,0,1,206.157,448.94Z" transform="translate(-199.771 -420.202)" fill="#d7d4cf"/>
          </g>
          <path id="パス_30503" data-name="パス 30503" d="M297.893,396.584v39.307a2.838,2.838,0,0,1-2.825,2.844H172.825A2.838,2.838,0,0,1,170,435.891V396.584a2.838,2.838,0,0,1,2.825-2.844H295.069A2.838,2.838,0,0,1,297.893,396.584Z" transform="translate(-170 -350.036)" fill="#d7d4cf"/>
          <path id="パス_30504" data-name="パス 30504" d="M297.893,353.7V425.34H170V353.7h.094a4.652,4.652,0,0,1,4.546-3.7H293.253a4.652,4.652,0,0,1,4.546,3.7Z" transform="translate(-170 -350)" fill="#251e22"/>
          <rect id="長方形_2226" data-name="長方形 2226" width="112.448" height="60.669" transform="translate(7.722 7.336)" fill="#fffff7"/>
        </g>
      </g>
      <g id="_4" data-name="4" transform="translate(0 36.735)">
        <g id="グループ_642" data-name="グループ 642" transform="translate(0 0)">
          <g id="グループ_641" data-name="グループ 641">
            <path id="パス_8509" data-name="パス 8509" d="M111.039,426.31c-6.051,17.678-30.247,23.264-44.213,23.264-8.7,0-21.389-2.168-31.165-8.074a30.61,30.61,0,0,1-11.333-11.346,23.281,23.281,0,0,1-1.716-3.844c-6.039-17.678-.452-34.438,5.121-49.322C33.319,362.077,46.82,350,66.826,350A41.611,41.611,0,0,1,88.6,355.786a40.076,40.076,0,0,1,13.607,13.594,44.652,44.652,0,0,1,3.711,7.608C111.5,391.873,117.078,408.633,111.039,426.31Z" transform="translate(-20 -350)" fill="#fa3541"/>
            <g id="グループ_632" data-name="グループ 632" transform="translate(8.672 67.238)">
              <path id="パス_8511" data-name="パス 8511" d="M49.069,441.552a5.077,5.077,0,0,1,5.08-5.12c3.311,0,4.2,3.025,4.2,4.886s-.885,10.237.662,14.891-3.091,5.119-4.857,2.327A30.432,30.432,0,0,1,49.069,441.552Z" transform="translate(-35.128 -436.432)" fill="#f1e275"/>
              <path id="パス_8512" data-name="パス 8512" d="M31.2,442.9c-.306-2.044.65-4.715,3.131-5.126s3.538,2.135,3.781,3.769.683,9.1,2.451,13-1.643,4.88-3.332,2.648A29.906,29.906,0,0,1,31.2,442.9Z" transform="translate(-31.148 -436.72)" fill="#f1e275"/>
              <path id="パス_8513" data-name="パス 8513" d="M109.19,441.552a5.076,5.076,0,0,0-5.078-5.12c-3.312,0-4.2,3.025-4.2,4.886s.883,10.237-.664,14.891,3.091,5.119,4.859,2.327A30.446,30.446,0,0,0,109.19,441.552Z" transform="translate(-46.203 -436.432)" fill="#f1e275"/>
              <path id="パス_8514" data-name="パス 8514" d="M126.354,442.9c.3-2.044-.651-4.715-3.132-5.126s-3.537,2.135-3.781,3.769-.681,9.1-2.45,13,1.642,4.88,3.331,2.648A29.913,29.913,0,0,0,126.354,442.9Z" transform="translate(-50.102 -436.72)" fill="#f1e275"/>
            </g>
            <path id="パス_30512" data-name="パス 30512" d="M124.406,426.31c-6.051,17.678-30.247,23.264-44.213,23.264V350a41.611,41.611,0,0,1,21.774,5.786,40.075,40.075,0,0,1,13.607,13.594,44.651,44.651,0,0,1,3.711,7.608C124.872,391.873,130.445,408.633,124.406,426.31Z" transform="translate(-33.367 -350)" fill="#240303" opacity="0.18"/>
          </g>
        </g>
      </g>
    </g>
    <text id="作成中" transform="translate(990 408.93)" fill="#121212" font-weight="bold" font-size="15" font-family="HeiseiMaruGoStd-W8, Heisei Maru Gothic Std" letter-spacing="0.043em"><tspan x="0" y="0">作成中</tspan></text>
    <circle id="楕円形_36" data-name="楕円形 36" cx="1.5" cy="1.5" r="1.5" transform="translate(1006 418.93)" fill="#251e22"/>
    <circle id="楕円形_37" data-name="楕円形 37" cx="1.5" cy="1.5" r="1.5" transform="translate(1012 418.93)" fill="#251e22"/>
    <circle id="楕円形_38" data-name="楕円形 38" cx="1.5" cy="1.5" r="1.5" transform="translate(1018 418.93)" fill="#251e22"/>
  </g>
</svg>
