<svg xmlns="http://www.w3.org/2000/svg" width="188.33" height="100.971" viewBox="0 0 188.33 100.971">
  <g id="rule_select" transform="translate(-496.89 -408.514)">
    <g id="グループ_3367" data-name="グループ 3367" transform="translate(-2597.89 -6183.515)">
      <g id="グループ_3363" data-name="グループ 3363" transform="translate(3094.89 6592.029)">
        <g id="_5" data-name="5" transform="translate(0 0)">
          <g id="グループ_2548" data-name="グループ 2548">
            <path id="パス_27976" data-name="パス 27976" d="M330.014,353.542v93.887a3.569,3.569,0,0,1-3.549,3.542H188.258a3.569,3.569,0,0,1-3.549-3.542V353.542A3.554,3.554,0,0,1,188.258,350H326.465A3.554,3.554,0,0,1,330.014,353.542Z" transform="translate(-163.251 -350)" fill="#7c6c5f"/>
            <path id="パス_27977" data-name="パス 27977" d="M227.863,365.043v0Z" transform="translate(-142.777 -342.923)" fill="#729567"/>
            <path id="パス_27978" data-name="パス 27978" d="M227.864,366.264h.29l-.29-1.217Z" transform="translate(-142.776 -342.919)" fill="#fff" opacity="0.3"/>
            <g id="グループ_2547" data-name="グループ 2547" transform="translate(26.816 6.505)">
              <path id="パス_27979" data-name="パス 27979" d="M322.059,359.244v80.9a4.814,4.814,0,0,1-4.829,4.785H193.212a4.289,4.289,0,0,1-1.052-.128,4.776,4.776,0,0,1-3.778-4.657v-80.9a4.815,4.815,0,0,1,4.83-4.785H317.23A4.815,4.815,0,0,1,322.059,359.244Z" transform="translate(-188.382 -354.459)" fill="#b9aea3"/>
              <path id="パス_27980" data-name="パス 27980" d="M299.47,354.459,209.331,444.8H189.209a.848.848,0,0,1-.827-.851v-84.7a4.788,4.788,0,0,1,4.776-4.785Z" transform="translate(-188.382 -354.459)" fill="#e3ddd1"/>
            </g>
            <path id="パス_27981" data-name="パス 27981" d="M358.22,413.182l-.29,1.039-1.247,4.375c0,1.437-1.738,2.586-3.876,2.586H175.413c-2.138,0-3.876-1.149-3.876-2.586l-.979-3.425-.535-1.9-.022-.089Z" transform="translate(-170 -320.211)" fill="#7c6c5f"/>
            <path id="パス_27982" data-name="パス 27982" d="M269.051,413.183h0a2.578,2.578,0,0,1-2.579,2.579H218.3a2.578,2.578,0,0,1-2.579-2.579h53.329Z" transform="translate(-148.276 -320.21)" fill="#62585b"/>
            <path id="パス_27983" data-name="パス 27983" d="M358.22,413.182v1.039H291.664c0,1.414-1.782,2.563-3.988,2.563H240.544c-2.206,0-3.988-1.15-3.988-2.563H170v-1.039h67.224a2.513,2.513,0,0,0,.129.632c.425,1.126,1.94,1.953,3.769,1.953H287.1c1.829,0,3.344-.827,3.767-1.953a2.452,2.452,0,0,0,.131-.632Z" transform="translate(-170 -320.211)" fill="#e3ddd1" opacity="0.5"/>
            <path id="パス_27984" data-name="パス 27984" d="M268.094,413.182l-3.05,2.585-1.215,1.017-1.546,1.3-3.647,3.094H175.37c-2.121,0-3.845-1.149-3.845-2.586l-.972-3.425-.531-1.9-.022-.089Z" transform="translate(-170 -320.211)" fill="#b9aea3" opacity="0.1"/>
          </g>
        </g>
      </g>
      <g id="グループ_3364" data-name="グループ 3364" transform="translate(3168.89 6619.844)">
        <g id="グループ_2007" data-name="グループ 2007">
          <g id="パス_25486" data-name="パス 25486" transform="translate(-46.099 -169.187)" fill="#b9aea3">
            <path d="M 86.48127746582031 216.8425445556641 L 85.98127746582031 216.8425445556641 L 46.09919738769531 216.8425445556641 L 45.59919738769531 216.8425445556641 L 45.59919738769531 216.3425445556641 L 45.59919738769531 169.1871948242188 L 45.59919738769531 168.6871948242188 L 46.09919738769531 168.6871948242188 L 76.97718048095703 168.6871948242188 L 77.18418121337891 168.6871948242188 L 77.33059692382812 168.83349609375 L 86.33469390869141 177.8307647705078 L 86.48127746582031 177.9772338867188 L 86.48127746582031 178.1844482421875 L 86.48127746582031 216.3425445556641 L 86.48127746582031 216.8425445556641 Z" stroke="none"/>
            <path d="M 46.09919738769531 169.1871948242188 L 46.09919738769531 216.3425445556641 L 85.98127746582031 216.3425445556641 L 85.98127746582031 178.1844482421875 L 76.9771728515625 169.1871948242188 L 46.09919738769531 169.1871948242188 M 45.09919738769531 168.1871948242188 L 77.39116668701172 168.1871948242188 L 86.98127746582031 177.77001953125 L 86.98127746582031 217.3425445556641 L 45.09919738769531 217.3425445556641 L 45.09919738769531 168.1871948242188 Z" stroke="none" fill="#e3ddd1"/>
          </g>
          <path id="パス_25487" data-name="パス 25487" d="M113.793,178.187h-9v-9Z" transform="translate(-73.911 -169.186)" fill="#7c6c5f"/>
          <text id="RULE" transform="translate(7.329 20.065)" fill="#7c6c5f" font-size="9" font-weight="bold" font-family="MOBO" letter-spacing="0.043em"><tspan x="0" y="0">RULE</tspan></text>
        </g>
      </g>
      <g id="グループ_3365" data-name="グループ 3365" transform="matrix(0.914, -0.407, 0.407, 0.914, -2366.354, 2067.732)">
        <path id="パス_33069" data-name="パス 33069" d="M2.512.458a.69.69,0,0,1,1.3,0L6.282,7.376a.69.69,0,0,1-.65.922,7.8,7.8,0,0,0-2.295-.369A12.337,12.337,0,0,0,.691,8.3a.69.69,0,0,1-.65-.922Z" transform="translate(3219.669 6453.011)" fill="#7c6c5f"/>
        <line id="線_63" data-name="線 63" x2="1.38" y2="5.52" transform="matrix(0.966, 0.259, -0.259, 0.966, 3222.878, 6459.355)" fill="none" stroke="#7c6c5f" stroke-linecap="round" stroke-width="1"/>
      </g>
      <g id="グループ_3366" data-name="グループ 3366" transform="translate(3131.644 6607.602)">
        <g id="グループ_2007-2" data-name="グループ 2007">
          <path id="パス_25486-2" data-name="パス 25486" d="M66.808,173.859v19.813H46.1V169.187H62.132Z" transform="translate(-46.099 -169.187)" fill="#b9aea3"/>
          <path id="パス_25487-2" data-name="パス 25487" d="M109.465,173.86h-4.674v-4.674Z" transform="translate(-88.757 -169.186)" fill="#7c6c5f"/>
          <text id="RULE-2" data-name="RULE" transform="translate(4.806 10.226)" fill="#7c6c5f" font-size="4" font-weight="bold" font-family="MOBO" letter-spacing="0.043em"><tspan x="0" y="0">RULE</tspan></text>
        </g>
      </g>
    </g>
    <g id="グループ_3368" data-name="グループ 3368" transform="translate(-2618.11 -5982.515)" opacity="0">
      <g id="グループ_3262" data-name="グループ 3262" transform="translate(3115 6391.029)">
        <g id="_5-2" data-name="5" transform="translate(0 0)">
          <g id="グループ_2548-2" data-name="グループ 2548">
            <path id="パス_27976-2" data-name="パス 27976" d="M330.014,353.542v93.887a3.569,3.569,0,0,1-3.549,3.542H188.258a3.569,3.569,0,0,1-3.549-3.542V353.542A3.554,3.554,0,0,1,188.258,350H326.465A3.554,3.554,0,0,1,330.014,353.542Z" transform="translate(-163.251 -350)" fill="#1b1518"/>
            <path id="パス_27977-2" data-name="パス 27977" d="M227.863,365.043v0Z" transform="translate(-142.777 -342.923)" fill="#729567"/>
            <path id="パス_27978-2" data-name="パス 27978" d="M227.864,366.264h.29l-.29-1.217Z" transform="translate(-142.776 -342.919)" fill="#fff" opacity="0.3"/>
            <g id="グループ_2547-2" data-name="グループ 2547" transform="translate(26.816 6.505)">
              <path id="パス_27979-2" data-name="パス 27979" d="M322.059,359.244v80.9a4.814,4.814,0,0,1-4.829,4.785H193.212a4.289,4.289,0,0,1-1.052-.128,4.776,4.776,0,0,1-3.778-4.657v-80.9a4.815,4.815,0,0,1,4.83-4.785H317.23A4.815,4.815,0,0,1,322.059,359.244Z" transform="translate(-188.382 -354.459)" fill="#bec1d9"/>
              <path id="パス_27980-2" data-name="パス 27980" d="M299.47,354.459,209.331,444.8H189.209a.848.848,0,0,1-.827-.851v-84.7a4.788,4.788,0,0,1,4.776-4.785Z" transform="translate(-188.382 -354.459)" fill="#d7d9e6"/>
            </g>
            <path id="パス_27981-2" data-name="パス 27981" d="M358.22,413.182l-.29,1.039-1.247,4.375c0,1.437-1.738,2.586-3.876,2.586H175.413c-2.138,0-3.876-1.149-3.876-2.586l-.979-3.425-.535-1.9-.022-.089Z" transform="translate(-170 -320.211)" fill="#ada394"/>
            <path id="パス_27982-2" data-name="パス 27982" d="M269.051,413.183h0a2.578,2.578,0,0,1-2.579,2.579H218.3a2.578,2.578,0,0,1-2.579-2.579h53.329Z" transform="translate(-148.276 -320.21)" fill="#62585b"/>
            <path id="パス_27983-2" data-name="パス 27983" d="M358.22,413.182v1.039H291.664c0,1.414-1.782,2.563-3.988,2.563H240.544c-2.206,0-3.988-1.15-3.988-2.563H170v-1.039h67.224a2.513,2.513,0,0,0,.129.632c.425,1.126,1.94,1.953,3.769,1.953H287.1c1.829,0,3.344-.827,3.767-1.953a2.452,2.452,0,0,0,.131-.632Z" transform="translate(-170 -320.211)" fill="#fff" opacity="0.5"/>
            <path id="パス_27984-2" data-name="パス 27984" d="M268.094,413.182l-3.05,2.585-1.215,1.017-1.546,1.3-3.647,3.094H175.37c-2.121,0-3.845-1.149-3.845-2.586l-.972-3.425-.531-1.9-.022-.089Z" transform="translate(-170 -320.211)" fill="#fff" opacity="0.1"/>
          </g>
        </g>
      </g>
      <g id="グループ_3360" data-name="グループ 3360" transform="translate(3189 6418.844)">
        <g id="グループ_2007-3" data-name="グループ 2007">
          <path id="パス_25486-3" data-name="パス 25486" d="M85.981,178.184v38.158H46.1V169.187H76.977Z" transform="translate(-46.099 -169.187)" fill="#fff"/>
          <path id="パス_25487-3" data-name="パス 25487" d="M113.793,178.187h-9v-9Z" transform="translate(-73.911 -169.186)" fill="#fb4f42"/>
          <text id="RULE-3" data-name="RULE" transform="translate(7.329 20.065)" fill="#474747" font-size="9" font-family="MOBO" letter-spacing="0.043em"><tspan x="0" y="0">RULE</tspan></text>
        </g>
      </g>
      <g id="グループ_3361" data-name="グループ 3361" transform="matrix(0.914, -0.407, 0.407, 0.914, -2346.244, 1866.732)">
        <path id="パス_33069-2" data-name="パス 33069" d="M2.512.458a.69.69,0,0,1,1.3,0L6.282,7.376a.69.69,0,0,1-.65.922,7.8,7.8,0,0,0-2.295-.369A12.337,12.337,0,0,0,.691,8.3a.69.69,0,0,1-.65-.922Z" transform="translate(3219.669 6453.011)" fill="#474747"/>
        <line id="線_63-2" data-name="線 63" x2="1.38" y2="5.52" transform="matrix(0.966, 0.259, -0.259, 0.966, 3222.878, 6459.355)" fill="none" stroke="#474747" stroke-linecap="round" stroke-width="1"/>
      </g>
      <g id="グループ_3362" data-name="グループ 3362" transform="translate(3151.754 6406.602)">
        <g id="グループ_2007-4" data-name="グループ 2007">
          <path id="パス_25486-4" data-name="パス 25486" d="M66.808,173.859v19.813H46.1V169.187H62.132Z" transform="translate(-46.099 -169.187)" fill="#fff"/>
          <path id="パス_25487-4" data-name="パス 25487" d="M109.465,173.86h-4.674v-4.674Z" transform="translate(-88.757 -169.186)" fill="#fb4f42"/>
          <text id="RULE-4" data-name="RULE" transform="translate(4.806 10.226)" fill="#474747" font-size="4" font-family="MOBO" letter-spacing="0.043em"><tspan x="0" y="0">RULE</tspan></text>
        </g>
      </g>
    </g>
  </g>
</svg>
